<svg width="960" height="960" viewBox="0 0 960 960" fill="none" xmlns="http://www.w3.org/2000/svg">
<rect width="960" height="960" fill="#F4F4EC"/>
<circle cx="160" cy="160" r="160" fill="#DD1A68"/>
<circle cx="160" cy="160" r="97" fill="#F6278F"/>
<rect x="0.00012207" y="320" width="320" height="320" fill="white"/>
<path d="M1.23007e-05 320C1.23007e-05 320 70.0672 321.567 114.25 365.75C158.433 409.933 160 480 160 480C160 480 88.9329 479.433 44.7501 435.25C0.567261 391.067 1.23007e-05 320 1.23007e-05 320Z" fill="#FFD82B"/>
<path d="M1.23007e-05 640C1.23007e-05 640 70.0672 638.433 114.25 594.25C158.433 550.067 160 480 160 480C160 480 88.9329 480.567 44.7501 524.75C0.567261 568.933 1.23007e-05 640 1.23007e-05 640Z" fill="#F16F24"/>
<path d="M320 640C320 640 249.933 638.433 205.75 594.25C161.567 550.067 160 480 160 480C160 480 231.067 480.567 275.25 524.75C319.433 568.933 320 640 320 640Z" fill="#FFD82B"/>
<path d="M320 320C320 320 249.933 321.567 205.75 365.75C161.567 409.933 160 480 160 480C160 480 231.067 479.433 275.25 435.25C319.433 391.067 320 320 320 320Z" fill="#F16F24"/>
<rect x="0.00012207" y="320" width="320" height="320" fill="white"/>
<path d="M1.23007e-05 320C1.23007e-05 320 70.0672 321.567 114.25 365.75C158.433 409.933 160 480 160 480C160 480 88.9329 479.433 44.7501 435.25C0.567261 391.067 1.23007e-05 320 1.23007e-05 320Z" fill="#FFD82B"/>
<path d="M1.23007e-05 640C1.23007e-05 640 70.0672 638.433 114.25 594.25C158.433 550.067 160 480 160 480C160 480 88.9329 480.567 44.7501 524.75C0.567261 568.933 1.23007e-05 640 1.23007e-05 640Z" fill="#F16F24"/>
<path d="M320 640C320 640 249.933 638.433 205.75 594.25C161.567 550.067 160 480 160 480C160 480 231.067 480.567 275.25 524.75C319.433 568.933 320 640 320 640Z" fill="#FFD82B"/>
<path d="M320 320C320 320 249.933 321.567 205.75 365.75C161.567 409.933 160 480 160 480C160 480 231.067 479.433 275.25 435.25C319.433 391.067 320 320 320 320Z" fill="#F16F24"/>
<rect x="320" y="640" width="320" height="320" fill="white"/>
<path d="M320 800C320 888.366 391.634 960 480 960V640C391.634 640 320 711.634 320 800Z" fill="#F6278F"/>
<path d="M480 800C480 888.366 551.634 960 640 960V640C551.634 640 480 711.634 480 800Z" fill="#FF6BB5"/>
<rect x="320" width="320" height="320" fill="white"/>
<path d="M320 0C320 0 460.134 3.13458 548.5 91.5001C636.866 179.866 640 320 640 320C640 320 497.866 318.865 409.5 230.5C321.135 142.134 320 0 320 0Z" fill="#96A139"/>
<path d="M409.5 230.5C497.866 318.865 640 320 640 320L320 0C320 0 321.135 142.134 409.5 230.5Z" fill="#636B2F"/>
<path d="M320 320L480 400L320 480V320Z" fill="#22D1E5"/>
<path d="M320 480L480 560L320 640V480Z" fill="#22D1E5"/>
<path d="M480 320L640 400L480 480V320Z" fill="#0B5D86"/>
<path d="M480 480L640 560L480 640V480Z" fill="#0B5D86"/>
<path d="M160 800C248.366 800 320 728.366 320 640H0C0 728.366 71.6344 800 160 800Z" fill="#96A139"/>
<path d="M320 800C231.634 800 160 871.634 160 960H320V800Z" fill="#636B2F"/>
<path d="M0 800C88.3656 800 160 871.634 160 960H0V800Z" fill="#636B2F"/>
<circle cx="720" cy="80" r="80" fill="#FFD82B"/>
<circle cx="880" cy="80" r="80" fill="#F16F24"/>
<circle cx="80" cy="80" r="80" transform="matrix(-1 0 0 1 960 160)" fill="#FFD82B"/>
<circle cx="80" cy="80" r="80" transform="matrix(-1 0 0 1 800 160)" fill="#F16F24"/>
<path d="M640 640H960V800C960 888.366 888.366 960 800 960C711.634 960 640 888.366 640 800V640Z" fill="#0B5D86"/>
<path d="M688 640H912V798C912 859.856 861.856 910 800 910C738.144 910 688 859.856 688 798V640Z" fill="#22D1E5"/>
<path d="M737 640H866V801.5C866 837.122 837.122 866 801.5 866C765.878 866 737 837.122 737 801.5V640Z" fill="#0B5D86"/>
<path d="M781 640H823V803C823 814.598 813.598 824 802 824C790.402 824 781 814.598 781 803V640Z" fill="#22D1E5"/>
<rect x="640" y="320" width="320" height="320" fill="white"/>
<path d="M800 320C800 320 839 354.064 839 383C839 411.936 800 446 800 446C800 446 761 411.936 761 383C761 354.064 800 320 800 320Z" fill="#636B2F"/>
<path d="M800 514C800 514 839 548.064 839 577C839 605.936 800 640 800 640C800 640 761 605.936 761 577C761 548.064 800 514 800 514Z" fill="#636B2F"/>
<path d="M834 480C834 480 868.064 441 897 441C925.936 441 960 480 960 480C960 480 925.936 519 897 519C868.064 519 834 480 834 480Z" fill="#636B2F"/>
<path d="M640 480C640 480 674.064 441 703 441C731.936 441 766 480 766 480C766 480 731.936 519 703 519C674.064 519 640 480 640 480Z" fill="#636B2F"/>
<path d="M809.869 469.762C809.869 469.762 809.492 417.982 831.146 398.788C852.8 379.595 904.161 386.185 904.161 386.185C904.161 386.185 904.538 437.966 882.884 457.159C861.23 476.353 809.869 469.762 809.869 469.762Z" fill="#636B2F"/>
<path d="M694.869 579.762C694.869 579.762 694.492 527.982 716.146 508.788C737.8 489.595 789.161 496.185 789.161 496.185C789.161 496.185 789.538 547.966 767.884 567.159C746.23 586.353 694.869 579.762 694.869 579.762Z" fill="#636B2F"/>
<path d="M789.161 469.762C789.161 469.762 789.538 417.982 767.884 398.788C746.23 379.595 694.869 386.185 694.869 386.185C694.869 386.185 694.492 437.966 716.146 457.159C737.8 476.353 789.161 469.762 789.161 469.762Z" fill="#636B2F"/>
<path d="M904.161 579.762C904.161 579.762 904.538 527.982 882.884 508.788C861.23 489.595 809.869 496.185 809.869 496.185C809.869 496.185 809.492 547.966 831.146 567.159C852.8 586.353 904.161 579.762 904.161 579.762Z" fill="#636B2F"/>
<circle cx="799.5" cy="479.5" r="58.5" fill="#FFD82B"/>
</svg>
