<svg width="960" height="960" viewBox="0 0 960 960" fill="none" xmlns="http://www.w3.org/2000/svg">
<rect width="960" height="960" transform="matrix(-1 0 0 1 960 0)" fill="#F4F4EC"/>
<circle cx="160" cy="160" r="160" transform="matrix(-1 0 0 1 960 0)" fill="#DD1A68"/>
<circle cx="97" cy="97" r="97" transform="matrix(-1 0 0 1 897 63)" fill="#F6278F"/>
<rect width="320" height="320" transform="matrix(-1 0 0 1 960 320)" fill="white"/>
<path d="M960 320C960 320 889.933 321.567 845.75 365.75C801.567 409.933 800 480 800 480C800 480 871.067 479.433 915.25 435.25C959.433 391.067 960 320 960 320Z" fill="#FFD82B"/>
<path d="M960 640C960 640 889.933 638.433 845.75 594.25C801.567 550.067 800 480 800 480C800 480 871.067 480.567 915.25 524.75C959.433 568.933 960 640 960 640Z" fill="#F16F24"/>
<path d="M640 640C640 640 710.067 638.433 754.25 594.25C798.433 550.067 800 480 800 480C800 480 728.933 480.567 684.75 524.75C640.567 568.933 640 640 640 640Z" fill="#FFD82B"/>
<path d="M640 320C640 320 710.067 321.567 754.25 365.75C798.433 409.933 800 480 800 480C800 480 728.933 479.433 684.75 435.25C640.567 391.067 640 320 640 320Z" fill="#F16F24"/>
<rect width="320" height="320" transform="matrix(-1 0 0 1 960 320)" fill="white"/>
<path d="M960 320C960 320 889.933 321.567 845.75 365.75C801.567 409.933 800 480 800 480C800 480 871.067 479.433 915.25 435.25C959.433 391.067 960 320 960 320Z" fill="#FFD82B"/>
<path d="M960 640C960 640 889.933 638.433 845.75 594.25C801.567 550.067 800 480 800 480C800 480 871.067 480.567 915.25 524.75C959.433 568.933 960 640 960 640Z" fill="#F16F24"/>
<path d="M640 640C640 640 710.067 638.433 754.25 594.25C798.433 550.067 800 480 800 480C800 480 728.933 480.567 684.75 524.75C640.567 568.933 640 640 640 640Z" fill="#FFD82B"/>
<path d="M640 320C640 320 710.067 321.567 754.25 365.75C798.433 409.933 800 480 800 480C800 480 728.933 479.433 684.75 435.25C640.567 391.067 640 320 640 320Z" fill="#F16F24"/>
<rect width="320" height="320" transform="matrix(-1 0 0 1 640 640)" fill="white"/>
<path d="M640 800C640 888.366 568.366 960 480 960V640C568.366 640 640 711.634 640 800Z" fill="#F6278F"/>
<path d="M480 800C480 888.366 408.366 960 320 960V640C408.366 640 480 711.634 480 800Z" fill="#FF6BB5"/>
<rect width="320" height="320" transform="matrix(-1 0 0 1 640 0)" fill="white"/>
<path d="M640 0C640 0 499.866 3.13458 411.5 91.5001C323.134 179.866 320 320 320 320C320 320 462.134 318.865 550.5 230.5C638.865 142.134 640 0 640 0Z" fill="#96A139"/>
<path d="M550.5 230.5C462.134 318.865 320 320 320 320L640 0C640 0 638.865 142.134 550.5 230.5Z" fill="#636B2F"/>
<path d="M640 320L480 400L640 480V320Z" fill="#22D1E5"/>
<path d="M640 480L480 560L640 640V480Z" fill="#22D1E5"/>
<path d="M480 320L320 400L480 480V320Z" fill="#0B5D86"/>
<path d="M480 480L320 560L480 640V480Z" fill="#0B5D86"/>
<path d="M800 800C711.634 800 640 728.366 640 640H960C960 728.366 888.366 800 800 800Z" fill="#96A139"/>
<path d="M640 800C728.366 800 800 871.634 800 960H640V800Z" fill="#636B2F"/>
<path d="M960 800C871.634 800 800 871.634 800 960H960V800Z" fill="#636B2F"/>
<circle cx="80" cy="80" r="80" transform="matrix(-1 0 0 1 320 0)" fill="#FFD82B"/>
<circle cx="80" cy="80" r="80" transform="matrix(-1 0 0 1 160 0)" fill="#F16F24"/>
<circle cx="80" cy="240" r="80" fill="#FFD82B"/>
<circle cx="240" cy="240" r="80" fill="#F16F24"/>
<path d="M320 640H0V800C0 888.366 71.6344 960 160 960C248.366 960 320 888.366 320 800V640Z" fill="#0B5D86"/>
<path d="M272 640H48V798C48 859.856 98.1441 910 160 910C221.856 910 272 859.856 272 798V640Z" fill="#22D1E5"/>
<path d="M223 640H94V801.5C94 837.122 122.878 866 158.5 866C194.122 866 223 837.122 223 801.5V640Z" fill="#0B5D86"/>
<path d="M179 640H137V803C137 814.598 146.402 824 158 824C169.598 824 179 814.598 179 803V640Z" fill="#22D1E5"/>
<rect width="320" height="320" transform="matrix(-1 0 0 1 320 320)" fill="white"/>
<path d="M160 320C160 320 121 354.064 121 383C121 411.936 160 446 160 446C160 446 199 411.936 199 383C199 354.064 160 320 160 320Z" fill="#636B2F"/>
<path d="M160 514C160 514 121 548.064 121 577C121 605.936 160 640 160 640C160 640 199 605.936 199 577C199 548.064 160 514 160 514Z" fill="#636B2F"/>
<path d="M126 480C126 480 91.9357 441 63 441C34.0643 441 0 480 0 480C0 480 34.0643 519 63 519C91.9357 519 126 480 126 480Z" fill="#636B2F"/>
<path d="M320 480C320 480 285.936 441 257 441C228.064 441 194 480 194 480C194 480 228.064 519 257 519C285.936 519 320 480 320 480Z" fill="#636B2F"/>
<path d="M150.131 469.762C150.131 469.762 150.508 417.982 128.854 398.788C107.2 379.595 55.8394 386.185 55.8394 386.185C55.8394 386.185 55.4621 437.966 77.116 457.159C98.7699 476.353 150.131 469.762 150.131 469.762Z" fill="#636B2F"/>
<path d="M265.131 579.762C265.131 579.762 265.508 527.982 243.854 508.788C222.2 489.595 170.839 496.185 170.839 496.185C170.839 496.185 170.462 547.966 192.116 567.159C213.77 586.353 265.131 579.762 265.131 579.762Z" fill="#636B2F"/>
<path d="M170.839 469.762C170.839 469.762 170.462 417.982 192.116 398.788C213.77 379.595 265.131 386.185 265.131 386.185C265.131 386.185 265.508 437.966 243.854 457.159C222.2 476.353 170.839 469.762 170.839 469.762Z" fill="#636B2F"/>
<path d="M55.8394 579.762C55.8394 579.762 55.4622 527.982 77.116 508.788C98.7699 489.595 150.131 496.185 150.131 496.185C150.131 496.185 150.508 547.966 128.854 567.159C107.2 586.353 55.8394 579.762 55.8394 579.762Z" fill="#636B2F"/>
<circle cx="58.5" cy="58.5" r="58.5" transform="matrix(-1 0 0 1 219 421)" fill="#FFD82B"/>
</svg>
