<?xml version="1.0" encoding="UTF-8" ?>
<!DOCTYPE svg PUBLIC "-//W3C//DTD SVG 1.1//EN" "http://www.w3.org/Graphics/SVG/1.1/DTD/svg11.dtd">
<svg width="1081pt" height="839pt" viewBox="0 0 1081 839" version="1.1" xmlns="http://www.w3.org/2000/svg">
<g id="#02084bff">
</g>
<g id="#ffffffff">
<path fill="#ffffff" opacity="1.00" d=" M 708.53 9.84 C 711.10 9.84 713.68 9.82 716.27 9.71 C 722.90 17.97 728.35 27.15 734.45 35.83 C 734.32 29.52 733.77 23.23 733.67 16.91 C 733.70 15.02 733.17 13.19 732.44 11.47 C 731.34 11.43 730.25 11.39 729.17 11.35 L 729.15 9.54 C 733.15 9.47 737.17 9.11 741.18 9.64 C 739.49 10.85 736.76 10.77 735.75 12.82 C 735.19 23.56 737.21 34.30 736.32 45.05 C 734.93 43.96 733.64 42.76 732.71 41.25 C 726.78 32.50 720.71 23.86 714.80 15.10 C 715.29 23.12 715.37 31.16 715.82 39.18 C 715.93 42.09 719.09 42.44 721.31 42.94 C 720.72 43.24 719.53 43.83 718.93 44.12 C 715.74 44.34 712.55 44.41 709.37 44.47 C 709.36 44.05 709.32 43.21 709.31 42.79 C 710.56 42.60 711.80 42.35 713.05 42.04 C 714.00 39.45 713.61 36.66 713.57 33.97 C 713.34 26.87 713.13 19.76 712.62 12.68 C 711.59 11.67 709.65 12.42 708.29 12.13 C 708.36 11.37 708.44 10.60 708.53 9.84 Z" />
<path fill="#ffffff" opacity="1.00" d=" M 757.74 10.47 C 762.10 11.37 766.49 12.09 770.89 12.75 C 770.68 13.36 770.48 13.97 770.29 14.57 C 769.19 13.92 768.02 13.51 766.76 13.37 C 765.66 18.68 764.69 24.02 764.18 29.43 C 768.24 25.51 773.37 22.96 777.41 19.03 C 777.68 17.92 777.89 16.79 778.02 15.65 C 777.39 15.56 776.14 15.38 775.51 15.28 C 775.45 14.81 775.32 13.85 775.26 13.38 C 776.49 13.54 777.72 13.72 778.97 13.90 C 781.87 14.54 784.82 15.01 787.74 15.65 C 787.57 16.22 787.22 17.36 787.05 17.93 C 786.87 17.50 786.50 16.65 786.32 16.22 C 780.73 17.68 776.79 22.12 771.99 25.02 C 773.75 32.30 776.70 39.23 778.99 46.35 C 780.11 46.54 781.25 46.71 782.39 46.88 C 782.52 47.35 782.78 48.30 782.91 48.77 C 780.63 48.56 778.35 48.39 776.13 47.84 C 773.51 47.53 770.92 47.15 768.40 46.44 C 768.53 46.15 768.81 45.57 768.94 45.28 C 770.00 45.36 772.12 45.52 773.18 45.60 C 772.60 39.54 769.79 34.04 768.15 28.25 C 766.70 29.18 765.25 30.12 763.80 31.03 C 762.86 35.14 762.36 39.33 761.51 43.46 C 763.15 44.04 764.81 44.55 766.46 45.12 C 763.77 46.29 760.77 45.45 758.08 44.79 C 756.25 44.57 754.41 44.40 752.59 44.23 C 752.54 43.79 752.44 42.91 752.38 42.47 C 753.98 42.54 755.57 42.60 757.19 42.64 C 758.66 32.64 761.00 22.75 761.84 12.68 C 760.43 12.57 759.03 12.46 757.65 12.36 C 757.67 11.89 757.72 10.94 757.74 10.47 Z" />
<path fill="#ffffff" opacity="1.00" d=" M 685.11 14.22 C 687.03 13.77 688.99 13.47 690.95 13.19 C 690.82 13.68 690.54 14.66 690.40 15.15 C 689.15 15.31 687.91 15.48 686.69 15.65 C 688.64 25.41 690.68 35.15 692.76 44.89 C 694.33 44.80 695.92 44.71 697.51 44.61 C 697.51 45.03 697.53 45.85 697.54 46.26 C 694.98 46.72 692.45 47.35 689.93 47.92 C 688.50 48.26 687.03 48.49 685.60 48.73 C 685.31 48.99 684.72 49.49 684.43 49.74 C 684.45 48.79 684.49 47.83 684.54 46.88 C 685.41 46.80 687.15 46.65 688.02 46.58 C 686.89 36.40 684.21 26.45 682.18 16.42 C 681.38 16.63 679.78 17.05 678.98 17.26 C 678.63 17.30 677.92 17.38 677.56 17.42 C 677.56 17.01 677.55 16.17 677.55 15.75 C 680.07 15.29 682.58 14.70 685.11 14.22 Z" />
<path fill="#ffffff" opacity="1.00" d=" M 8.27 138.59 C 10.44 138.70 12.61 138.94 14.75 139.33 C 22.39 140.02 30.12 139.20 37.71 140.39 C 47.82 140.57 57.94 140.74 68.05 140.70 C 69.78 140.67 71.51 140.83 73.17 141.30 C 73.70 141.07 74.76 140.62 75.28 140.39 L 75.49 141.32 C 84.35 141.19 93.21 141.45 102.06 141.18 C 110.36 140.13 118.79 140.89 127.14 140.35 C 133.47 139.00 140.07 140.14 146.38 138.53 C 154.92 159.85 162.76 181.46 171.03 202.89 C 185.22 240.16 199.29 277.46 213.57 314.69 C 188.36 314.80 163.15 314.74 137.94 314.72 C 123.39 277.05 108.72 239.43 94.13 201.78 C 92.49 197.41 90.54 193.14 89.41 188.59 C 89.26 191.73 88.81 194.85 88.83 198.00 C 88.87 236.91 88.83 275.83 88.85 314.74 C 82.95 314.73 77.06 314.79 71.16 314.70 C 71.25 283.45 71.19 252.21 71.19 220.97 C 70.49 206.07 71.12 190.56 65.46 176.46 C 62.69 169.11 56.46 163.50 49.19 160.75 C 47.17 160.13 45.16 159.47 43.17 158.77 C 41.82 158.48 40.47 158.20 39.13 157.86 C 37.43 157.54 35.73 157.23 34.06 156.79 C 31.73 156.56 29.38 156.36 27.10 155.79 C 23.45 155.48 19.76 155.53 16.17 154.74 C 13.39 154.59 10.61 154.51 7.83 154.44 C 7.97 149.15 7.45 143.83 8.27 138.59 Z" />
<path fill="#ffffff" opacity="1.00" d=" M 1033.92 139.80 C 1043.37 139.55 1052.82 139.73 1062.28 139.36 C 1067.04 138.42 1071.92 138.85 1076.75 138.67 C 1074.48 167.72 1071.83 196.78 1071.59 225.94 C 1071.20 251.45 1071.59 277.00 1073.63 302.44 C 1067.68 302.44 1061.73 302.44 1055.79 302.45 C 1053.82 283.84 1051.48 265.27 1048.15 246.85 C 1045.36 232.41 1042.47 217.83 1036.70 204.23 C 1030.57 189.85 1019.97 177.25 1006.19 169.70 C 1004.84 169.05 1003.51 168.40 1002.20 167.73 C 1001.10 167.22 1000.01 166.70 998.93 166.19 C 994.81 164.36 990.44 163.22 986.18 161.79 C 984.75 161.53 983.34 161.28 981.95 160.96 C 980.26 160.62 978.60 160.35 976.97 159.92 C 975.27 159.67 973.59 159.46 971.92 159.24 C 969.58 158.64 967.16 158.46 964.78 158.26 C 960.58 157.19 956.21 157.55 951.94 157.17 C 949.06 156.49 946.08 156.69 943.16 156.65 C 926.64 156.52 910.12 156.62 893.61 156.59 C 893.61 209.30 893.60 262.01 893.61 314.72 C 869.46 314.77 845.31 314.74 821.16 314.74 C 821.16 288.49 821.21 262.24 821.14 236.00 C 821.19 213.00 821.19 190.00 821.14 167.00 C 821.16 163.54 821.18 160.09 821.18 156.63 C 802.05 156.59 782.93 156.49 763.80 156.71 C 759.54 157.57 755.17 157.40 750.86 157.75 C 746.55 158.64 742.17 159.04 737.85 159.81 C 736.17 160.21 734.47 160.52 732.79 160.83 C 731.48 161.19 730.18 161.54 728.89 161.86 C 727.29 162.34 725.69 162.79 724.12 163.30 C 723.56 163.42 722.46 163.64 721.90 163.76 C 720.64 164.26 719.36 164.72 718.12 165.21 C 715.31 166.26 712.55 167.43 709.89 168.79 C 692.92 177.77 680.62 194.01 674.92 212.18 C 665.62 241.45 662.67 272.19 658.65 302.49 C 652.82 302.40 646.99 302.45 641.16 302.46 C 643.84 264.03 643.92 225.45 641.64 186.99 C 640.93 170.84 639.08 154.76 638.18 138.62 C 638.90 138.68 640.35 138.81 641.07 138.87 C 657.01 140.17 673.07 139.28 689.05 139.85 C 693.66 140.67 698.37 140.18 703.03 140.36 C 734.70 140.76 766.38 140.58 798.06 140.84 C 801.00 141.41 804.01 141.28 807.00 141.28 C 830.01 141.31 853.02 141.29 876.03 141.27 C 891.99 140.25 908.02 140.93 924.02 140.70 C 951.01 140.65 978.00 140.63 1004.99 140.34 C 1008.97 140.23 1013.00 140.59 1016.95 139.85 C 1022.61 139.01 1028.30 140.92 1033.92 139.80 Z" />
<path fill="#ffffff" opacity="1.00" d=" M 603.17 139.69 C 609.33 139.51 615.48 139.34 621.64 139.17 C 621.62 144.27 621.66 149.37 621.59 154.46 C 617.77 154.63 613.91 154.45 610.18 155.34 C 606.83 155.53 603.44 155.47 600.16 156.24 C 598.12 156.49 596.08 156.76 594.10 157.28 C 592.73 157.48 591.36 157.68 590.00 157.88 C 586.33 158.93 582.61 159.83 579.06 161.25 C 578.56 161.49 577.57 161.95 577.07 162.19 C 568.40 166.08 563.38 175.03 561.50 184.00 C 557.32 203.71 558.73 223.96 558.47 243.96 C 558.47 267.54 558.45 291.12 558.48 314.70 C 534.26 314.79 510.04 314.74 485.83 314.73 C 485.83 282.46 485.83 250.20 485.83 217.94 C 485.66 208.74 486.20 199.51 485.49 190.33 C 481.33 203.49 475.99 216.24 471.34 229.23 C 460.71 257.73 450.14 286.25 439.48 314.74 C 433.36 314.74 427.24 314.76 421.12 314.73 C 442.62 256.89 464.28 199.11 485.84 141.29 C 511.24 141.25 536.64 141.40 562.04 141.20 C 575.71 139.92 589.51 141.24 603.17 139.69 Z" />
<path fill="#ffffff" opacity="1.00" d=" M 221.18 379.40 C 229.73 379.41 238.29 379.40 246.84 379.41 C 246.84 381.17 246.84 382.94 246.84 384.72 C 240.37 384.71 233.89 384.74 227.42 384.70 C 227.31 387.99 227.32 391.29 227.33 394.59 C 233.18 394.59 239.03 394.58 244.88 394.60 C 244.83 396.51 244.77 398.44 244.69 400.36 C 238.90 400.30 233.11 400.34 227.33 400.32 C 227.32 403.64 227.31 406.96 227.45 410.28 C 231.24 409.84 235.52 411.18 239.00 409.48 C 241.52 411.03 244.78 409.98 247.62 410.28 C 247.61 412.04 247.61 413.80 247.61 415.57 C 238.80 415.61 229.99 415.58 221.17 415.59 C 221.19 411.39 221.16 407.20 221.16 403.01 C 221.17 400.00 221.17 396.99 221.16 393.99 C 221.17 389.13 221.18 384.27 221.18 379.40 Z" />
<path fill="#ffffff" opacity="1.00" d=" M 291.70 379.49 C 301.53 379.34 311.37 379.38 321.20 379.47 C 321.21 381.13 321.23 382.80 321.28 384.47 C 317.52 385.74 313.50 385.02 309.63 385.18 C 309.64 395.31 309.62 405.44 309.64 415.57 C 307.58 415.58 305.52 415.58 303.47 415.59 C 303.49 405.47 303.45 395.35 303.49 385.23 C 299.81 385.17 296.12 385.16 292.44 385.23 C 292.14 383.32 291.90 381.40 291.70 379.49 Z" />
<path fill="#ffffff" opacity="1.00" d=" M 449.28 384.30 C 457.08 376.86 471.00 377.87 477.71 386.30 C 482.89 392.29 483.05 401.96 478.24 408.22 C 475.86 411.80 471.90 413.74 468.10 415.43 C 464.07 415.74 459.99 415.93 456.01 415.16 C 449.91 412.59 444.52 407.45 443.58 400.65 C 442.68 394.69 444.53 388.20 449.28 384.30 M 456.87 385.95 C 452.50 388.31 449.19 392.88 449.63 398.03 C 449.46 402.30 452.34 405.74 455.35 408.41 C 459.87 410.83 465.20 410.96 469.69 408.38 C 472.42 405.91 475.14 402.90 475.35 399.03 C 475.89 394.65 474.06 390.09 470.46 387.50 C 466.63 384.45 461.34 384.97 456.87 385.95 Z" />
<path fill="#ffffff" opacity="1.00" d=" M 524.70 379.49 C 534.54 379.34 544.38 379.37 554.22 379.47 C 554.21 380.87 554.21 382.27 554.23 383.68 C 553.96 384.06 553.44 384.82 553.18 385.20 C 549.66 385.17 546.14 385.18 542.63 385.19 C 542.64 395.31 542.62 405.44 542.64 415.57 C 540.58 415.58 538.52 415.59 536.47 415.59 C 536.48 405.47 536.45 395.35 536.49 385.23 C 532.81 385.17 529.12 385.15 525.44 385.23 C 525.13 383.33 524.89 381.40 524.70 379.49 Z" />
<path fill="#ffffff" opacity="1.00" d=" M 608.82 380.65 C 613.33 379.05 618.28 379.12 622.93 380.07 C 629.99 382.59 636.17 389.10 635.82 396.99 C 636.60 404.42 631.54 411.09 625.16 414.33 C 620.35 416.26 614.99 415.92 609.99 415.09 C 604.89 412.71 600.15 408.76 598.45 403.21 C 596.62 397.20 597.77 389.93 602.38 385.43 C 604.20 383.43 606.53 382.03 608.82 380.65 M 611.00 386.05 C 604.62 388.99 601.84 397.48 605.36 403.58 C 607.21 407.30 610.99 409.37 614.88 410.37 C 616.26 410.33 617.65 410.31 619.05 410.28 C 620.34 409.78 621.65 409.33 622.98 408.89 C 626.53 406.37 629.89 402.62 629.60 397.97 C 629.92 393.86 627.91 389.79 624.57 387.42 C 620.72 384.49 615.43 384.89 611.00 386.05 Z" />
<path fill="#ffffff" opacity="1.00" d=" M 766.18 379.40 C 774.73 379.41 783.28 379.40 791.84 379.41 C 791.83 381.17 791.83 382.94 791.84 384.72 C 785.37 384.71 778.89 384.74 772.42 384.70 C 772.31 387.99 772.32 391.29 772.33 394.59 C 778.18 394.59 784.03 394.58 789.88 394.60 C 789.82 396.51 789.77 398.44 789.69 400.36 C 783.90 400.30 778.11 400.34 772.33 400.32 C 772.32 403.63 772.30 406.94 772.44 410.25 C 774.11 410.26 775.79 410.28 777.47 410.33 L 777.60 409.60 C 778.21 409.69 779.44 409.87 780.06 409.97 C 782.34 410.17 784.86 410.82 787.00 409.61 C 788.70 410.59 790.74 410.19 792.62 410.34 C 792.61 412.08 792.60 413.82 792.61 415.57 C 783.80 415.61 774.98 415.58 766.17 415.59 C 766.19 411.72 766.16 407.86 766.15 404.00 C 766.20 395.80 766.16 387.60 766.18 379.40 Z" />
<path fill="#ffffff" opacity="1.00" d=" M 923.83 380.63 C 928.39 378.98 933.31 379.10 938.06 379.72 C 940.32 380.63 942.58 381.58 944.71 382.79 C 943.80 384.73 942.92 386.68 942.13 388.67 C 937.83 385.12 932.10 384.74 926.81 385.62 C 926.11 387.48 925.00 389.58 926.71 391.26 C 929.46 394.01 933.70 394.29 937.19 395.72 C 939.18 396.73 941.38 397.51 942.98 399.14 C 945.42 402.11 945.93 406.62 943.95 409.97 C 942.76 411.82 940.90 413.07 939.20 414.40 C 934.99 416.16 930.33 415.75 925.90 415.42 C 924.63 414.85 923.37 414.32 922.10 413.79 C 920.35 412.70 918.04 411.94 917.12 409.97 C 917.31 408.29 918.20 406.80 919.01 405.35 C 921.24 405.64 922.91 407.44 924.83 408.49 C 927.19 409.15 929.60 409.62 931.98 410.28 C 934.31 409.53 937.45 409.09 938.23 406.31 C 938.75 403.65 936.00 402.03 934.13 400.77 C 932.75 400.52 931.41 400.28 930.07 399.97 C 929.07 399.58 928.08 399.20 927.10 398.83 C 923.48 397.57 919.48 395.22 918.96 391.06 C 918.03 386.89 920.43 382.87 923.83 380.63 Z" />
<path fill="#ffffff" opacity="1.00" d=" M 132.17 379.41 C 134.58 379.40 137.00 379.40 139.41 379.40 C 143.33 387.37 147.42 395.25 151.20 403.29 C 155.24 395.40 159.19 387.45 163.01 379.44 C 165.49 379.40 167.97 379.41 170.45 379.43 C 170.44 391.47 170.44 403.51 170.45 415.55 C 168.52 415.57 166.59 415.58 164.66 415.60 C 164.62 406.65 164.72 397.69 164.55 388.74 C 160.99 396.48 157.00 404.02 153.39 411.73 C 151.93 411.70 150.48 411.67 149.04 411.65 C 145.79 403.89 141.02 396.77 138.51 388.73 C 137.09 397.60 138.12 406.64 137.81 415.59 C 135.93 415.59 134.05 415.59 132.18 415.59 C 132.16 403.53 132.19 391.47 132.17 379.41 Z" />
<path fill="#ffffff" opacity="1.00" d=" M 367.57 379.41 C 373.39 379.47 379.22 379.25 385.04 379.54 C 390.05 379.62 395.06 382.98 396.43 387.91 C 396.99 390.61 396.68 393.37 396.47 396.09 C 395.23 398.82 393.38 401.20 390.88 402.87 C 390.51 403.12 389.77 403.62 389.40 403.87 C 392.23 407.62 394.86 411.52 397.30 415.53 C 395.00 415.55 392.69 415.76 390.41 415.41 C 388.14 411.91 386.12 408.24 384.00 404.64 C 380.57 404.57 377.14 404.58 373.71 404.59 C 373.71 408.25 373.71 411.92 373.71 415.58 C 371.66 415.58 369.61 415.58 367.56 415.59 C 367.57 403.53 367.56 391.47 367.57 379.41 M 373.71 385.19 C 373.71 389.75 373.71 394.31 373.71 398.87 C 378.15 398.79 382.64 399.18 387.03 398.34 C 392.15 396.24 392.14 387.99 387.25 385.55 C 382.75 385.13 378.23 385.14 373.71 385.19 Z" />
<path fill="#ffffff" opacity="1.00" d=" M 683.82 379.39 C 685.89 379.40 687.97 379.42 690.05 379.47 C 695.13 386.51 700.45 393.39 705.57 400.42 C 706.62 401.88 707.89 403.17 709.19 404.42 C 709.39 396.07 709.17 387.71 709.31 379.36 C 711.32 379.39 713.34 379.42 715.37 379.47 C 715.35 391.50 715.35 403.52 715.37 415.55 C 713.25 415.57 711.14 415.58 709.04 415.55 C 703.09 406.73 695.86 398.75 690.48 389.58 C 689.22 398.19 690.11 406.92 689.84 415.59 C 687.83 415.59 685.82 415.58 683.82 415.58 C 683.83 403.52 683.82 391.45 683.82 379.39 Z" />
<path fill="#ffffff" opacity="1.00" d=" M 841.36 379.41 C 847.94 379.48 854.54 379.17 861.11 379.73 C 862.13 380.08 863.16 380.43 864.20 380.75 C 867.79 382.90 870.78 386.56 870.58 390.96 C 871.17 396.23 868.09 401.08 863.56 403.57 C 865.32 407.89 868.87 411.41 871.15 415.54 C 868.78 415.58 866.41 415.58 864.06 415.50 C 862.12 411.80 859.76 408.34 857.80 404.65 C 854.37 404.56 850.95 404.58 847.53 404.59 C 847.52 408.24 847.52 411.90 847.53 415.56 C 845.47 415.57 843.41 415.58 841.37 415.60 C 841.36 403.53 841.36 391.47 841.36 379.41 M 847.59 384.74 C 847.49 389.62 847.51 394.52 847.57 399.41 C 851.01 399.33 854.54 399.76 857.93 398.88 C 859.30 398.60 860.69 398.36 862.08 398.12 C 863.71 395.76 865.39 393.01 864.46 390.03 C 863.91 386.18 859.40 384.39 856.06 385.97 C 856.96 385.48 857.85 384.96 858.74 384.43 C 855.02 384.20 851.31 384.91 847.59 384.74 Z" />
<path fill="#ffffff" opacity="1.00" d=" M 203.11 482.36 C 227.81 482.37 252.52 482.28 277.22 482.40 C 290.78 518.45 304.67 554.39 318.16 590.47 C 331.65 554.43 345.00 518.34 358.57 482.33 C 364.72 482.38 370.86 482.30 377.00 482.39 C 350.81 553.14 324.27 623.76 298.12 694.53 C 293.91 694.62 289.69 694.57 285.48 694.61 C 257.98 623.88 230.50 553.13 203.11 482.36 Z" />
<path fill="#ffffff" opacity="1.00" d=" M 71.20 482.35 C 77.08 482.34 82.97 482.34 88.85 482.35 C 88.84 514.26 88.85 546.16 88.85 578.06 C 88.95 587.37 88.57 596.69 89.19 605.98 C 89.31 618.07 90.00 630.25 92.91 642.03 C 95.04 649.82 99.28 657.33 105.96 662.10 C 109.09 664.40 112.46 666.39 116.01 668.00 C 117.28 668.42 118.55 668.85 119.82 669.33 C 124.85 670.79 129.91 672.24 135.13 672.85 C 137.81 673.43 140.55 673.57 143.29 673.77 C 148.72 675.09 154.37 674.24 159.84 675.34 C 159.85 680.46 159.85 685.58 159.84 690.70 C 154.63 690.41 149.36 690.69 144.21 689.72 C 135.46 689.65 126.72 689.22 117.96 689.24 C 113.36 689.17 108.74 689.42 104.17 688.71 C 87.74 688.61 71.30 688.50 54.87 688.79 C 41.71 689.98 28.35 688.72 15.21 690.32 C 12.75 690.45 10.29 690.56 7.83 690.67 C 7.83 685.61 7.84 680.55 7.82 675.49 C 9.47 675.26 11.12 675.00 12.77 674.73 C 16.20 674.56 19.67 674.61 23.04 673.86 C 26.71 673.47 30.36 672.87 33.93 671.93 C 35.99 671.32 38.06 670.73 40.17 670.26 C 41.42 669.80 42.68 669.38 43.94 668.95 C 53.72 665.62 61.85 657.90 65.27 648.10 C 70.95 632.75 70.51 616.09 71.20 599.98 C 71.20 560.77 71.20 521.56 71.20 482.35 Z" />
<path fill="#ffffff" opacity="1.00" d=" M 485.83 482.37 C 510.04 482.35 534.26 482.31 558.48 482.39 C 558.46 524.26 558.47 566.13 558.47 608.00 C 558.45 619.69 558.86 631.44 561.00 642.96 C 562.57 654.04 569.07 665.07 580.03 668.97 C 581.04 669.28 582.06 669.60 583.09 669.92 C 584.41 670.28 585.73 670.57 587.07 670.92 C 588.41 671.27 589.75 671.55 591.12 671.88 C 595.74 672.72 600.40 673.46 605.10 673.82 C 610.53 675.00 616.17 674.49 621.65 675.43 C 621.61 680.51 621.63 685.59 621.64 690.68 C 617.66 690.63 613.70 690.50 609.74 690.35 C 599.95 688.98 590.01 690.01 580.17 689.25 C 577.17 688.94 573.63 690.15 571.01 688.44 C 569.66 689.85 567.66 689.07 566.05 688.82 C 536.04 688.48 506.02 688.62 476.01 688.75 C 470.42 688.95 464.76 688.29 459.24 689.37 C 450.93 689.95 442.52 689.04 434.28 690.31 C 430.42 690.48 426.55 690.62 422.69 690.69 C 422.69 685.59 422.70 680.49 422.69 675.40 C 424.71 675.26 426.74 675.03 428.76 674.74 C 436.87 674.60 444.91 673.25 452.89 671.85 C 454.24 671.56 455.62 671.29 456.98 670.98 C 458.30 670.58 459.65 670.25 460.97 669.84 C 461.52 669.71 462.61 669.46 463.16 669.34 C 471.99 666.30 478.96 658.91 481.46 649.91 C 487.17 630.48 485.53 609.97 485.83 589.98 C 485.83 554.11 485.83 518.24 485.83 482.37 Z" />
<path fill="#ffffff" opacity="1.00" d=" M 821.17 482.35 C 845.32 482.36 869.46 482.32 893.61 482.37 C 893.60 521.27 893.60 560.18 893.61 599.08 C 893.69 612.64 894.12 626.33 897.24 639.59 C 898.99 647.62 903.10 655.16 909.06 660.85 C 914.28 665.16 920.49 668.33 927.09 669.90 C 930.97 671.14 935.03 671.52 939.00 672.37 C 940.95 672.56 942.92 672.82 944.86 673.28 C 948.84 673.71 952.90 673.38 956.83 674.30 C 961.99 674.74 967.17 674.73 972.34 674.80 C 972.53 680.08 972.40 685.36 972.47 690.65 C 964.03 690.40 955.54 690.68 947.15 689.66 C 935.95 689.72 924.76 689.12 913.56 689.31 L 913.42 688.65 C 912.55 688.69 910.81 688.79 909.95 688.83 C 883.60 688.56 857.24 688.58 830.89 688.66 C 806.25 689.79 781.55 689.06 756.89 689.77 C 752.12 690.46 747.29 690.55 742.49 690.70 C 742.52 685.39 742.39 680.08 742.60 674.78 C 747.80 674.74 753.01 674.74 758.21 674.33 C 761.48 673.55 764.86 673.54 768.21 673.34 C 770.82 672.71 773.50 672.51 776.18 672.28 C 778.12 671.76 780.10 671.46 782.09 671.22 C 784.76 670.55 787.43 669.89 790.11 669.29 C 791.42 668.81 792.74 668.34 794.06 667.87 C 799.73 665.35 805.31 662.13 809.11 657.09 C 817.64 646.77 819.15 632.88 820.39 620.03 C 821.76 591.05 820.98 562.01 821.14 533.00 C 821.19 525.33 821.19 517.66 821.14 510.00 C 821.21 500.78 821.16 491.57 821.17 482.35 Z" />
<path fill="#ffffff" opacity="1.00" d=" M 422.98 746.85 C 423.72 746.30 424.46 745.75 425.21 745.21 C 425.31 745.86 425.42 746.52 425.54 747.20 C 424.40 747.78 423.26 748.37 422.14 748.97 C 426.75 758.01 432.84 766.23 437.99 774.98 C 438.73 774.62 440.21 773.89 440.95 773.53 C 441.48 773.47 442.53 773.37 443.06 773.32 C 442.84 773.72 442.40 774.51 442.18 774.91 C 438.32 776.97 434.77 779.54 431.09 781.90 C 430.93 779.83 432.13 778.49 434.10 777.95 C 430.22 769.61 424.32 762.37 419.95 754.27 C 420.88 761.00 423.56 767.31 425.30 773.85 C 426.21 777.51 428.20 781.08 427.60 784.97 C 420.40 778.60 413.12 772.32 405.78 766.12 C 405.39 765.60 404.62 764.55 404.23 764.02 C 404.58 766.77 406.33 768.99 407.77 771.26 C 411.16 776.45 414.27 781.82 417.86 786.88 C 419.44 786.61 421.13 786.41 422.29 785.16 C 422.48 785.80 422.68 786.45 422.88 787.11 C 419.46 789.02 416.39 791.66 412.59 792.84 C 413.84 790.94 416.69 788.66 414.78 786.20 C 410.06 778.43 405.22 770.71 400.17 763.15 C 398.78 763.99 397.39 764.84 396.00 765.70 C 395.88 765.27 395.65 764.40 395.53 763.96 C 398.43 762.27 401.36 760.61 404.01 758.55 C 410.43 764.66 417.21 770.41 423.94 776.18 C 422.17 767.59 419.04 759.33 416.62 750.90 C 418.70 749.49 420.81 748.12 422.98 746.85 Z" />
<path fill="#ffffff" opacity="1.00" d=" M 182.24 745.97 C 187.12 747.97 191.12 751.59 195.64 754.26 C 199.22 756.35 201.79 759.84 202.37 763.99 C 201.80 768.77 197.72 772.17 193.02 772.43 C 188.28 771.34 184.57 768.15 180.25 766.18 C 178.08 770.32 175.00 773.91 173.00 778.16 C 174.12 778.77 175.25 779.38 176.38 779.99 C 176.51 780.52 176.77 781.58 176.91 782.11 C 176.01 781.67 175.12 781.23 174.24 780.79 C 170.82 778.43 167.35 776.16 163.89 773.88 C 164.36 773.73 165.31 773.43 165.79 773.28 C 166.97 773.73 168.94 776.10 169.83 774.08 C 175.25 766.09 180.52 757.98 185.76 749.87 C 184.76 749.20 183.76 748.55 182.75 747.92 C 182.62 747.43 182.36 746.46 182.24 745.97 M 181.82 764.90 C 185.18 767.10 188.83 770.00 193.12 768.62 C 195.78 767.08 198.16 764.28 197.88 761.01 C 198.33 756.27 192.68 754.91 189.85 752.30 C 187.04 756.40 183.82 760.31 181.82 764.90 Z" />
<path fill="#ffffff" opacity="1.00" d=" M 214.44 765.26 C 215.67 765.79 216.89 766.32 218.13 766.85 C 220.44 767.85 222.77 768.84 225.13 769.76 C 227.05 770.60 229.00 771.42 230.97 772.17 C 234.19 774.17 237.72 777.94 235.75 781.99 C 235.06 785.16 231.78 786.30 229.11 787.32 C 228.12 787.33 226.13 787.34 225.13 787.34 C 229.41 790.94 227.06 796.85 226.12 801.41 C 225.25 803.02 226.46 804.56 228.16 804.90 C 229.24 803.20 230.29 801.49 231.42 799.83 C 231.95 803.47 228.61 805.66 226.06 807.53 C 224.53 806.75 223.02 805.97 221.52 805.16 C 219.84 799.87 223.49 795.12 223.79 789.99 C 224.00 786.74 220.43 785.84 218.15 784.64 C 217.75 784.57 216.95 784.44 216.55 784.37 C 214.78 789.29 211.97 793.88 211.09 799.08 C 212.99 799.57 214.69 800.54 216.19 801.80 C 211.31 801.88 207.30 798.69 202.80 797.29 C 202.27 796.79 201.74 796.29 201.21 795.81 C 201.63 795.74 202.46 795.60 202.87 795.54 C 203.75 795.84 205.50 796.45 206.38 796.75 C 210.55 787.54 214.31 778.12 218.02 768.71 C 216.77 768.18 215.52 767.67 214.27 767.18 C 214.31 766.70 214.40 765.74 214.44 765.26 M 217.30 782.36 C 218.23 782.89 219.16 783.43 220.08 783.99 C 222.01 784.57 224.01 784.96 226.03 784.75 C 229.60 785.09 231.16 780.97 231.52 778.09 C 232.11 775.06 229.37 773.10 226.94 772.09 C 225.30 771.65 223.65 771.29 221.99 770.98 C 220.53 774.81 218.93 778.60 217.30 782.36 Z" />
<path fill="#ffffff" opacity="1.00" d=" M 382.83 769.78 C 384.43 769.27 386.03 768.76 387.65 768.29 C 387.53 768.69 387.29 769.47 387.17 769.86 C 385.59 770.71 383.67 771.76 384.42 773.93 C 386.35 780.79 389.45 787.30 391.38 794.17 C 392.57 799.10 389.35 803.87 385.03 805.99 C 383.70 806.41 382.38 806.85 381.09 807.36 C 375.91 808.24 370.47 805.36 368.50 800.45 C 365.87 793.71 363.50 786.87 361.06 780.07 C 359.38 780.29 357.71 780.56 356.04 780.83 C 356.19 780.37 356.48 779.46 356.62 779.00 C 358.48 778.51 360.32 777.92 362.14 777.30 C 363.43 776.78 364.73 776.32 366.04 775.87 C 366.56 775.53 367.62 774.86 368.14 774.53 C 368.67 775.06 369.21 775.61 369.76 776.16 C 368.22 776.69 366.68 777.23 365.16 777.80 C 366.82 783.68 369.23 789.31 371.18 795.10 C 372.42 798.35 373.35 802.09 376.30 804.27 C 377.96 805.63 380.14 805.34 382.13 805.50 C 384.98 803.97 388.07 802.21 389.33 799.05 C 390.46 795.19 388.46 791.52 387.22 787.99 C 385.28 783.10 383.96 777.96 381.44 773.33 C 379.69 773.30 377.93 773.29 376.19 773.26 C 376.82 771.67 378.53 771.41 379.87 770.77 C 380.86 770.45 381.85 770.12 382.83 769.78 Z" />
<path fill="#ffffff" opacity="1.00" d=" M 250.52 779.36 C 251.67 779.53 252.82 779.72 253.97 779.93 C 255.61 780.35 257.27 780.62 258.94 780.98 C 260.59 781.35 262.26 781.62 263.93 781.98 C 265.91 782.42 267.91 782.74 269.88 783.22 C 272.17 783.61 274.44 784.13 276.71 784.68 C 275.80 788.27 276.02 792.27 273.93 795.46 C 273.73 792.00 273.57 788.40 271.28 785.60 C 269.22 784.93 267.16 784.31 265.11 783.65 C 263.07 783.46 261.03 783.32 258.98 783.31 C 258.45 787.81 257.38 792.22 256.49 796.66 C 258.99 796.82 261.51 796.86 264.00 796.49 C 264.69 794.61 265.40 792.75 266.16 790.91 C 267.28 796.09 264.43 801.20 264.13 806.39 C 263.81 806.43 263.16 806.52 262.84 806.56 C 262.86 804.34 262.78 802.13 262.41 799.96 C 261.28 799.58 260.16 799.18 259.05 798.77 C 258.28 798.67 256.74 798.46 255.97 798.36 C 255.32 803.12 254.21 807.79 253.30 812.51 C 254.95 813.28 256.73 813.62 258.55 813.72 L 258.46 814.37 C 260.74 814.41 263.06 814.77 265.33 814.38 C 269.38 812.46 270.67 807.84 272.49 804.12 C 273.06 808.80 270.76 813.13 270.08 817.67 C 268.75 817.41 267.42 817.14 266.10 816.84 C 264.42 816.53 262.73 816.24 261.07 815.86 C 259.41 815.54 257.75 815.24 256.11 814.85 C 254.42 814.53 252.74 814.24 251.07 813.84 C 248.74 813.46 246.44 812.97 244.15 812.43 C 244.33 811.75 244.51 811.07 244.69 810.41 C 245.85 811.19 247.15 811.66 248.58 811.84 C 251.10 801.88 253.08 791.75 254.78 781.62 C 253.40 781.47 252.02 781.34 250.65 781.22 C 250.62 780.75 250.55 779.83 250.52 779.36 Z" />
<path fill="#ffffff" opacity="1.00" d=" M 342.01 781.87 C 343.29 781.68 344.57 781.53 345.86 781.38 C 345.78 781.86 345.61 782.80 345.52 783.27 C 344.20 783.36 342.88 783.48 341.57 783.60 C 343.27 793.62 345.19 803.59 346.90 813.61 C 348.55 813.54 350.21 813.45 351.87 813.38 C 351.71 813.81 351.39 814.67 351.23 815.10 C 348.81 815.32 346.35 815.47 344.01 816.19 C 341.85 816.51 339.68 816.70 337.51 816.69 C 338.47 815.25 340.26 815.39 341.76 815.14 C 341.89 812.71 341.81 810.28 341.36 807.90 C 339.88 800.10 338.56 792.27 337.09 784.46 C 335.54 784.78 334.01 785.16 332.47 785.52 C 332.47 785.08 332.48 784.21 332.48 783.77 C 333.99 783.49 335.50 783.24 337.00 782.92 C 338.67 782.59 340.35 782.30 342.01 781.87 Z" />
<path fill="#ffffff" opacity="1.00" d=" M 287.61 785.75 C 290.83 785.77 294.05 785.77 297.27 785.76 C 300.44 794.14 301.85 803.20 305.69 811.28 C 307.72 802.67 310.07 794.13 312.54 785.63 C 315.77 785.68 319.01 785.67 322.24 785.70 C 322.27 786.12 322.31 786.98 322.33 787.41 C 320.76 787.44 319.19 787.46 317.62 787.51 C 317.56 797.53 317.64 807.56 317.71 817.60 C 319.68 817.63 321.61 818.04 323.35 819.03 C 318.49 820.13 313.47 819.37 308.54 819.59 C 308.59 819.14 308.70 818.25 308.76 817.80 C 310.27 817.76 311.78 817.70 313.30 817.66 C 313.30 808.41 313.28 799.16 313.19 789.91 C 309.65 800.22 307.80 811.05 304.05 821.29 C 300.37 811.01 297.23 800.51 294.43 789.97 C 294.11 799.08 293.98 808.23 294.57 817.33 C 296.23 817.93 297.87 818.49 299.52 819.15 C 295.44 819.82 290.81 820.46 286.87 818.95 C 289.09 818.42 292.17 817.98 292.13 815.04 C 292.18 805.89 292.58 796.67 291.72 787.56 C 290.26 787.57 288.82 787.59 287.37 787.62 C 287.43 787.15 287.55 786.22 287.61 785.75 Z" />
</g>
</svg>
