<?xml version="1.0" encoding="UTF-8" ?>
<!DOCTYPE svg PUBLIC "-//W3C//DTD SVG 1.1//EN" "http://www.w3.org/Graphics/SVG/1.1/DTD/svg11.dtd">
<svg width="1181pt" height="1181pt" viewBox="0 0 1181 1181" version="1.1" xmlns="http://www.w3.org/2000/svg">
<g id="#02084bff">
<path fill="#02084b" opacity="1.00" d=" M 0.00 0.00 L 1181.00 0.00 L 1181.00 1181.00 L 0.00 1181.00 L 0.00 0.00 M 761.40 184.20 C 761.36 184.86 761.34 185.52 761.33 186.18 C 762.77 186.20 764.23 186.23 765.70 186.26 C 765.89 195.56 766.86 204.86 766.54 214.16 C 766.79 216.75 764.01 216.36 762.30 216.82 C 762.32 217.24 762.36 218.06 762.37 218.47 C 766.41 218.40 770.53 218.52 774.41 217.20 C 772.81 216.61 771.16 216.14 769.65 215.37 C 768.23 212.81 768.71 209.78 768.52 206.99 C 768.49 201.02 768.02 195.07 767.79 189.11 C 773.86 198.04 780.04 206.90 786.10 215.84 C 786.83 217.21 788.18 217.91 789.54 218.56 C 789.90 207.97 788.33 197.41 788.74 186.83 C 789.97 185.11 792.19 184.64 793.86 183.44 C 789.94 183.24 786.05 183.44 782.14 183.54 L 782.18 185.35 C 783.27 185.39 784.37 185.43 785.48 185.48 C 786.36 187.55 786.73 189.77 786.72 192.02 C 786.75 197.33 787.27 202.62 787.41 207.94 C 787.03 207.85 786.27 207.67 785.89 207.58 C 780.38 199.60 775.31 191.30 769.33 183.67 C 766.75 184.43 764.05 184.43 761.40 184.20 M 810.76 184.41 C 810.73 184.89 810.67 185.86 810.65 186.35 C 812.04 186.46 813.45 186.58 814.86 186.70 C 813.95 196.77 811.69 206.66 810.18 216.64 C 808.57 216.60 806.98 216.54 805.39 216.48 C 805.44 216.91 805.53 217.79 805.57 218.22 C 807.40 218.39 809.22 218.58 811.06 218.81 C 813.79 219.63 816.66 219.77 819.50 219.59 C 817.91 218.71 816.22 218.03 814.56 217.30 C 815.35 213.23 815.89 209.11 816.78 205.05 C 818.24 204.13 819.68 203.19 821.14 202.25 C 822.91 208.09 825.38 213.73 826.60 219.73 C 825.25 219.52 823.94 219.20 822.67 218.77 C 822.19 219.29 821.72 219.81 821.27 220.34 C 823.81 221.11 826.44 221.54 829.09 221.82 C 831.32 222.34 833.60 222.56 835.89 222.80 C 835.77 222.32 835.53 221.37 835.41 220.89 C 834.26 220.72 833.13 220.55 832.00 220.37 C 829.68 213.26 826.82 206.32 824.94 199.07 C 829.22 196.35 832.94 192.74 837.63 190.69 C 838.95 190.57 840.28 190.41 841.61 190.20 C 838.52 188.99 835.21 188.61 831.99 187.90 C 830.73 187.72 829.48 187.54 828.24 187.37 C 828.31 187.78 828.45 188.60 828.52 189.01 C 830.78 189.01 831.48 191.13 830.45 192.93 C 826.46 196.96 821.23 199.48 817.16 203.44 C 817.72 198.01 818.64 192.62 819.80 187.29 C 820.92 187.68 822.05 188.08 823.19 188.47 C 823.63 187.93 824.08 187.38 824.52 186.84 C 822.67 186.58 820.82 186.34 819.02 185.90 C 817.33 185.66 815.65 185.44 813.98 185.25 C 812.90 184.96 811.82 184.67 810.76 184.41 M 730.54 189.77 C 730.55 190.19 730.56 191.02 730.57 191.43 C 730.92 191.39 731.62 191.31 731.96 191.27 C 732.77 191.06 734.37 190.62 735.17 190.40 C 737.29 200.36 739.66 210.29 741.15 220.37 C 739.60 220.86 738.08 221.37 736.56 221.86 C 736.94 222.34 737.34 222.84 737.74 223.33 C 739.43 222.78 741.16 222.31 742.88 221.80 C 745.45 221.38 747.98 220.75 750.55 220.24 C 750.54 219.84 750.51 219.02 750.50 218.61 C 748.91 218.71 747.33 218.80 745.76 218.90 C 743.67 209.16 741.66 199.41 739.68 189.65 C 740.91 189.48 742.16 189.31 743.41 189.15 C 743.54 188.65 743.80 187.66 743.93 187.17 C 739.42 187.82 735.01 188.94 730.54 189.77 M 1084.96 313.84 C 1079.21 314.40 1073.38 313.32 1067.58 313.73 L 1067.47 314.32 C 1039.64 314.47 1011.81 314.69 983.98 314.69 C 972.65 314.91 961.29 314.30 950.00 315.07 C 944.37 314.57 938.66 314.47 933.06 315.19 C 911.38 315.38 889.70 315.26 868.02 315.29 C 864.34 315.24 860.62 315.55 856.99 314.86 C 854.04 315.49 851.01 315.36 848.07 314.80 C 814.03 314.65 779.99 314.66 745.94 314.29 C 728.99 313.09 711.96 313.93 694.98 313.24 C 694.04 313.05 692.16 312.66 691.22 312.47 C 691.49 324.00 693.29 335.44 693.71 346.96 C 694.41 354.98 694.69 363.02 695.25 371.05 C 695.97 394.02 696.94 417.01 695.82 439.98 C 695.88 452.16 694.78 464.30 694.16 476.46 C 699.99 476.44 705.84 476.41 711.68 476.48 C 715.71 445.79 718.68 414.64 728.30 385.05 C 734.42 366.16 747.96 349.66 766.06 341.18 C 767.69 340.55 769.31 339.89 770.96 339.27 C 772.26 338.75 773.58 338.26 774.90 337.74 C 775.46 337.64 776.57 337.42 777.12 337.31 C 778.69 336.78 780.30 336.32 781.90 335.83 C 783.22 335.51 784.59 335.21 785.92 334.83 C 791.85 333.49 797.89 332.81 803.86 331.75 C 807.85 331.44 811.89 331.57 815.83 330.72 C 835.28 330.47 854.73 330.60 874.18 330.63 C 874.17 342.09 874.18 353.54 874.17 365.00 C 874.17 376.67 874.18 388.33 874.17 400.00 C 874.18 429.58 874.17 459.16 874.17 488.74 C 898.32 488.74 922.46 488.77 946.61 488.72 C 946.60 436.01 946.61 383.30 946.61 330.59 C 964.79 330.64 982.97 330.47 1001.15 330.72 C 1006.07 331.67 1011.11 331.22 1016.08 331.81 C 1018.33 332.38 1020.65 332.56 1022.97 332.78 C 1031.00 334.23 1039.13 335.42 1046.84 338.23 C 1048.55 338.85 1050.25 339.51 1051.95 340.19 C 1053.02 340.68 1054.07 341.18 1055.17 341.69 C 1055.68 341.94 1056.71 342.44 1057.22 342.69 C 1068.57 348.44 1078.15 357.54 1084.64 368.47 C 1091.31 379.31 1094.82 391.70 1097.67 404.00 C 1103.13 427.84 1106.16 452.16 1108.79 476.45 C 1114.74 476.44 1120.68 476.45 1126.64 476.44 C 1124.59 451.03 1124.20 425.53 1124.59 400.04 C 1124.84 370.85 1127.46 341.76 1129.77 312.68 C 1125.56 312.74 1121.33 312.54 1117.18 313.33 C 1106.45 313.73 1095.70 313.54 1084.96 313.84 M 60.83 313.22 C 60.83 318.29 60.82 323.36 60.84 328.44 C 63.62 328.52 66.40 328.59 69.19 328.72 C 72.77 329.49 76.45 329.50 80.09 329.79 C 82.39 330.34 84.74 330.54 87.09 330.78 C 90.08 331.51 93.10 332.08 96.11 332.75 C 98.40 333.55 100.72 334.30 103.01 335.11 C 110.21 337.95 116.12 343.83 118.74 351.15 C 123.95 364.78 123.53 379.65 124.19 393.99 C 124.22 425.58 124.20 457.16 124.20 488.74 C 130.08 488.75 135.97 488.75 141.85 488.74 C 141.84 454.83 141.85 420.92 141.85 387.01 C 141.90 378.87 141.58 370.71 142.40 362.59 C 143.56 367.17 145.52 371.49 147.18 375.90 C 161.76 413.51 176.40 451.10 190.95 488.72 C 216.11 488.75 241.27 488.78 266.44 488.71 C 244.43 430.16 221.92 371.80 199.93 313.24 C 193.97 313.39 187.98 313.39 182.06 314.24 C 174.67 314.69 167.25 314.54 159.85 314.72 C 154.62 315.66 149.30 315.19 144.03 315.29 C 136.72 315.07 129.34 315.79 122.08 314.79 C 113.72 314.64 105.37 314.68 97.01 314.50 C 84.93 314.55 72.91 313.17 60.83 313.22 M 654.80 313.70 C 642.21 315.10 629.47 314.35 616.82 314.70 C 614.23 315.06 611.63 315.31 609.02 315.27 C 585.63 315.32 562.23 315.28 538.84 315.29 C 517.28 373.11 495.63 430.89 474.12 488.72 C 480.24 488.76 486.36 488.74 492.48 488.74 C 507.82 447.33 523.52 406.06 538.55 364.54 C 539.14 374.67 538.68 384.82 538.83 394.95 C 538.83 426.21 538.83 457.47 538.83 488.73 C 563.04 488.74 587.26 488.79 611.48 488.71 C 611.45 463.80 611.47 438.89 611.47 413.99 C 611.63 395.32 610.58 376.41 614.50 358.02 C 616.36 349.00 621.43 340.14 630.05 336.14 C 634.20 334.26 638.60 333.05 643.00 331.92 C 646.46 331.43 649.87 330.62 653.35 330.21 C 656.57 329.50 659.89 329.51 663.19 329.35 C 666.93 328.54 670.77 328.58 674.59 328.46 C 674.66 323.36 674.62 318.26 674.64 313.17 C 668.02 313.33 661.41 313.58 654.80 313.70 M 274.18 553.41 C 274.17 557.60 274.17 561.80 274.17 566.00 C 274.18 573.86 274.17 581.73 274.18 589.59 C 282.99 589.58 291.80 589.61 300.61 589.57 C 300.61 587.88 300.62 586.19 300.64 584.51 C 299.44 584.26 298.23 584.02 297.04 583.78 C 291.57 584.80 285.96 584.00 280.44 584.28 C 280.31 580.96 280.32 577.64 280.32 574.33 C 286.11 574.34 291.90 574.30 297.70 574.35 C 297.77 572.43 297.83 570.51 297.88 568.60 C 292.03 568.58 286.18 568.59 280.33 568.59 C 280.32 565.29 280.31 561.99 280.41 558.70 C 286.89 558.73 293.37 558.71 299.85 558.72 C 299.84 556.94 299.84 555.17 299.84 553.41 C 291.29 553.40 282.73 553.41 274.18 553.41 M 344.70 553.50 C 344.94 555.40 345.19 557.31 345.45 559.22 C 349.13 559.16 352.81 559.17 356.49 559.22 C 356.45 569.34 356.48 579.47 356.47 589.59 C 358.52 589.58 360.58 589.58 362.64 589.57 C 362.62 579.44 362.64 569.31 362.63 559.18 C 366.51 559.32 370.40 559.15 374.24 558.55 C 374.22 556.85 374.21 555.15 374.21 553.46 C 364.37 553.39 354.53 553.32 344.70 553.50 M 507.72 554.59 C 505.44 555.97 503.11 557.35 501.24 559.28 C 495.61 564.85 494.81 574.45 499.02 581.07 C 501.21 584.97 505.18 587.23 509.02 589.21 C 513.32 589.87 517.70 589.87 521.99 589.20 C 525.39 587.34 529.06 585.54 531.26 582.20 C 536.85 574.95 535.55 563.36 528.17 557.81 C 522.65 552.82 514.52 552.46 507.72 554.59 M 577.70 553.49 C 577.93 555.39 578.18 557.31 578.44 559.22 C 582.12 559.16 585.80 559.17 589.49 559.22 C 589.45 569.34 589.48 579.47 589.47 589.59 C 591.52 589.58 593.58 589.58 595.64 589.57 C 595.62 579.44 595.64 569.31 595.63 559.18 C 599.16 559.18 602.69 559.17 606.22 559.20 C 606.47 558.80 606.97 558.00 607.23 557.60 C 607.21 556.21 607.21 554.83 607.22 553.46 C 597.38 553.38 587.53 553.34 577.70 553.49 M 661.80 554.65 C 659.71 555.93 657.59 557.19 655.86 558.94 C 649.79 564.52 648.93 574.67 653.50 581.43 C 655.77 584.92 659.33 587.24 662.98 589.12 C 668.26 589.89 673.98 590.39 678.91 587.90 C 684.96 584.61 689.56 578.08 688.82 570.98 C 689.19 563.02 682.90 556.67 675.91 553.96 C 671.23 553.21 666.32 553.04 661.80 554.65 M 819.18 553.40 C 819.17 561.60 819.18 569.80 819.17 578.00 C 819.16 579.99 819.15 581.99 819.16 584.00 C 819.16 585.86 819.17 587.73 819.20 589.60 C 828.00 589.57 836.81 589.61 845.61 589.57 C 845.60 587.80 845.60 586.04 845.62 584.28 C 840.72 584.24 835.83 584.29 830.94 584.22 C 829.10 584.26 827.26 584.23 825.44 584.30 C 825.30 580.97 825.32 577.65 825.32 574.33 C 831.11 574.34 836.90 574.30 842.69 574.35 C 842.77 572.43 842.82 570.51 842.88 568.60 C 837.03 568.58 831.18 568.59 825.33 568.59 C 825.32 565.29 825.31 561.99 825.42 558.70 C 831.89 558.74 838.37 558.71 844.85 558.72 C 844.83 556.94 844.83 555.17 844.84 553.41 C 836.28 553.40 827.73 553.41 819.18 553.40 M 976.17 555.28 C 971.96 557.71 970.62 563.64 972.89 567.83 C 974.51 570.41 977.32 571.75 980.06 572.85 C 981.34 573.31 982.61 573.80 983.91 574.30 C 984.98 574.42 986.07 574.55 987.17 574.67 C 989.25 575.97 990.92 577.76 991.69 580.14 C 990.21 582.56 987.70 583.75 985.00 584.26 C 982.59 583.71 980.20 583.13 977.82 582.48 C 975.93 581.40 974.06 580.24 972.60 578.63 C 971.63 580.35 970.51 582.03 970.03 583.97 C 971.11 585.87 973.32 586.69 975.12 587.79 C 976.37 588.30 977.63 588.86 978.89 589.42 C 983.33 589.80 987.96 590.08 992.21 588.41 C 996.04 586.09 999.36 581.76 997.87 577.07 C 997.23 572.53 992.64 570.71 988.91 569.26 C 986.82 568.59 984.74 567.92 982.63 567.38 C 981.36 566.43 979.70 565.76 979.09 564.20 C 977.85 562.22 979.59 559.25 981.91 559.37 C 986.59 558.66 991.31 559.80 995.13 562.59 C 995.96 560.63 996.82 558.70 997.71 556.77 C 995.55 555.61 993.31 554.65 991.08 553.69 C 986.13 553.32 980.59 552.46 976.17 555.28 M 184.93 553.48 C 185.49 565.50 185.02 577.55 185.17 589.59 C 187.05 589.58 188.93 589.58 190.81 589.59 C 190.97 580.63 190.43 571.65 191.21 562.71 C 194.29 570.60 198.63 577.91 202.05 585.65 C 203.49 585.68 204.93 585.70 206.38 585.73 C 210.02 578.05 213.92 570.49 217.56 562.81 C 217.70 571.74 217.62 580.67 217.67 589.60 C 219.59 589.58 221.52 589.57 223.45 589.55 C 223.44 577.51 223.44 565.47 223.45 553.43 C 220.97 553.40 218.50 553.40 216.02 553.44 C 212.25 561.38 208.25 569.21 204.38 577.11 C 200.13 569.33 196.43 561.27 192.41 553.39 C 189.91 553.40 187.42 553.41 184.93 553.48 M 420.57 553.41 C 420.56 565.47 420.57 577.53 420.56 589.59 C 422.61 589.58 424.66 589.58 426.71 589.58 C 426.71 585.92 426.71 582.25 426.71 578.59 C 430.13 578.58 433.56 578.57 436.99 578.63 C 439.03 582.27 441.33 585.76 443.24 589.47 C 445.60 589.58 447.97 589.58 450.34 589.56 C 447.85 585.56 445.23 581.63 442.42 577.85 C 442.79 577.62 443.52 577.14 443.89 576.91 C 446.33 575.16 448.23 572.81 449.49 570.09 C 449.66 566.82 450.27 563.30 448.79 560.24 C 447.72 557.74 445.37 556.20 443.31 554.59 C 435.91 552.52 428.14 553.73 420.57 553.41 M 736.82 553.39 C 736.82 565.45 736.82 577.52 736.82 589.59 C 738.82 589.58 740.83 589.58 742.84 589.59 C 743.05 580.95 742.33 572.25 743.40 563.65 C 749.01 572.70 756.02 580.80 762.07 589.56 C 764.16 589.58 766.26 589.57 768.36 589.56 C 768.36 577.53 768.35 565.50 768.37 553.47 C 766.34 553.42 764.31 553.39 762.30 553.36 C 762.24 562.01 762.26 570.65 762.28 579.30 C 755.84 570.70 749.37 562.13 743.03 553.46 C 740.95 553.41 738.88 553.40 736.82 553.39 M 894.36 553.41 C 894.36 565.47 894.36 577.53 894.37 589.60 C 896.41 589.58 898.47 589.57 900.53 589.56 C 900.52 585.90 900.52 582.24 900.53 578.59 C 903.89 578.59 907.26 578.59 910.64 578.58 C 912.80 582.22 915.06 585.81 917.11 589.53 C 919.46 589.58 921.81 589.58 924.18 589.54 C 921.68 585.74 919.17 581.96 916.52 578.28 C 916.59 578.01 916.72 577.46 916.79 577.19 C 925.68 573.33 926.00 559.02 917.25 554.75 C 916.17 554.41 915.11 554.06 914.07 553.70 C 907.51 553.20 900.93 553.47 894.36 553.41 M 411.56 656.34 C 398.00 692.34 384.67 728.42 371.16 764.44 C 357.65 728.37 343.80 692.43 330.21 656.39 C 305.50 656.31 280.80 656.34 256.09 656.38 C 283.53 727.13 310.97 797.88 338.48 868.60 C 342.69 868.57 346.90 868.62 351.11 868.53 C 377.29 797.78 403.79 727.14 430.01 656.40 C 423.86 656.29 417.71 656.38 411.56 656.34 M 124.18 656.37 C 124.23 688.25 124.19 720.12 124.20 752.00 C 124.30 766.95 124.16 781.90 123.28 796.83 C 121.98 808.47 120.73 820.88 113.70 830.68 C 109.52 836.82 102.93 840.74 96.12 843.35 C 95.59 843.48 94.52 843.75 93.99 843.88 C 91.65 844.60 89.28 845.26 86.93 845.95 C 83.01 847.01 78.96 847.36 75.00 848.19 C 71.93 848.47 68.85 848.61 65.76 848.70 C 64.12 848.97 62.47 849.24 60.82 849.50 C 60.84 854.55 60.83 859.60 60.82 864.65 C 64.87 864.45 68.94 864.45 72.98 864.09 C 83.26 862.86 93.68 863.92 103.96 862.80 C 123.31 862.50 142.67 862.62 162.02 862.72 C 165.99 862.78 169.99 862.48 173.92 863.21 C 181.99 863.37 190.05 863.64 198.12 863.74 C 202.97 864.70 207.93 864.43 212.84 864.69 C 212.80 859.38 213.00 854.06 212.66 848.76 C 207.17 848.66 201.60 848.93 196.20 847.76 C 193.52 847.57 190.82 847.42 188.20 846.83 C 186.78 846.64 185.35 846.47 183.94 846.31 C 181.25 845.53 178.53 844.86 175.79 844.28 C 173.54 843.50 171.29 842.74 169.01 842.04 C 163.87 839.52 158.81 836.58 154.76 832.47 C 146.97 824.25 144.57 812.73 143.42 801.84 C 141.53 783.30 141.89 764.62 141.85 746.00 C 141.85 716.12 141.84 686.23 141.85 656.35 C 135.96 656.35 130.07 656.33 124.18 656.37 M 538.83 656.37 C 538.82 698.58 538.83 740.80 538.83 783.02 C 538.81 795.40 538.44 807.91 535.56 820.01 C 533.81 828.37 529.21 836.22 521.84 840.79 C 519.24 841.96 516.62 843.08 513.91 843.96 C 512.60 844.27 511.30 844.59 510.00 844.91 C 508.07 845.40 506.12 845.81 504.19 846.32 C 502.46 846.49 500.72 846.67 499.01 846.93 C 496.08 847.55 493.05 847.62 490.13 848.32 C 485.35 848.68 480.55 848.73 475.75 848.79 C 475.64 854.09 475.71 859.39 475.69 864.70 C 481.42 864.40 487.21 864.75 492.89 863.73 C 503.94 863.66 514.99 863.20 526.05 863.26 C 528.01 863.27 529.98 863.14 531.91 862.79 C 554.25 862.58 576.59 862.56 598.94 862.67 C 607.26 862.92 615.65 862.22 623.94 863.20 C 634.30 863.34 644.67 863.62 655.03 863.72 C 661.53 864.52 668.09 864.54 674.64 864.68 C 674.59 859.38 674.74 854.07 674.50 848.78 C 669.62 848.73 664.75 848.70 659.89 848.29 C 657.55 847.72 655.15 847.49 652.77 847.31 C 648.53 846.51 644.23 846.12 640.10 844.90 C 638.00 844.38 635.93 843.81 633.85 843.32 C 624.83 840.17 617.97 832.36 615.49 823.20 C 611.78 809.50 611.52 795.16 611.47 781.06 C 611.47 739.50 611.46 697.94 611.48 656.38 C 587.26 656.31 563.04 656.35 538.83 656.37 M 874.17 656.35 C 874.17 686.24 874.17 716.13 874.17 746.02 C 874.04 757.33 874.48 768.66 873.85 779.96 C 873.85 791.54 873.00 803.19 870.25 814.46 C 867.96 823.68 862.77 832.36 854.88 837.83 C 852.30 839.30 849.63 840.60 847.00 841.99 C 841.72 843.76 836.29 845.16 830.76 845.87 C 828.49 846.39 826.17 846.60 823.87 846.85 C 820.86 847.50 817.78 847.57 814.73 847.75 C 810.81 848.62 806.79 848.60 802.81 848.73 C 800.37 849.07 797.92 849.29 795.48 849.37 C 795.50 854.48 795.48 859.59 795.49 864.70 C 798.38 864.60 801.29 864.48 804.20 864.36 C 812.70 863.03 821.37 863.77 829.95 863.51 C 840.28 863.11 850.67 863.84 860.95 862.82 C 895.32 862.49 929.69 862.57 964.05 862.82 C 973.32 863.70 982.69 863.21 992.00 863.60 C 1003.19 863.26 1014.27 864.90 1025.46 864.66 C 1025.40 859.37 1025.53 854.08 1025.35 848.80 C 1020.54 848.74 1015.74 848.71 1010.95 848.40 C 1006.63 847.46 1002.20 847.67 997.84 847.31 C 995.56 846.78 993.25 846.49 990.95 846.24 C 988.66 845.71 986.35 845.40 984.06 844.98 C 982.73 844.61 981.41 844.24 980.11 843.87 C 978.77 843.54 977.45 843.23 976.14 842.90 C 972.89 841.49 969.64 840.04 966.62 838.19 C 958.86 833.50 953.76 825.34 951.09 816.84 C 947.15 802.58 946.70 787.66 946.61 772.96 C 946.60 734.09 946.60 695.23 946.61 656.37 C 922.46 656.32 898.32 656.36 874.17 656.35 M 475.98 920.90 C 474.64 921.64 473.32 922.41 471.96 923.12 C 471.33 923.90 469.78 924.48 470.09 925.70 C 471.92 934.00 475.39 941.88 476.98 950.24 C 470.55 944.75 464.17 939.19 457.96 933.44 C 457.48 933.41 456.51 933.35 456.02 933.32 C 453.54 934.99 450.99 936.56 448.39 938.03 C 448.80 938.54 449.21 939.06 449.64 939.60 C 450.78 938.76 451.78 937.61 453.23 937.33 C 458.35 944.74 463.04 952.49 467.75 960.17 C 469.63 962.57 466.55 964.78 465.97 967.13 C 469.37 965.31 472.52 963.08 475.85 961.13 C 475.70 960.58 475.41 959.48 475.26 958.93 C 474.99 959.31 474.46 960.07 474.19 960.44 C 473.34 960.51 471.63 960.66 470.77 960.73 C 467.74 956.50 465.10 952.01 462.29 947.64 C 460.37 944.54 458.07 941.59 457.02 938.05 C 457.63 938.72 458.23 939.40 458.83 940.10 C 466.24 946.35 473.39 952.91 480.95 958.97 C 479.60 948.44 474.59 938.74 472.88 928.26 C 477.45 936.30 483.09 943.73 487.25 952.00 C 485.97 952.62 484.72 953.31 483.45 953.97 C 483.87 954.54 484.30 955.12 484.73 955.72 C 488.06 953.11 491.63 950.84 495.34 948.82 C 495.48 948.03 495.62 947.26 495.77 946.49 C 495.12 946.92 494.48 947.36 493.83 947.81 C 493.12 948.09 491.69 948.65 490.97 948.93 C 486.01 940.89 480.84 932.97 475.94 924.90 C 474.24 922.81 477.17 922.03 478.48 921.04 C 478.42 920.57 478.29 919.63 478.23 919.15 C 477.48 919.73 476.72 920.29 475.98 920.90 M 234.81 920.03 C 235.97 921.87 239.19 923.64 237.35 926.10 C 232.26 933.72 227.46 941.55 222.11 948.98 C 220.92 948.50 219.78 947.94 218.69 947.30 C 218.11 947.49 217.54 947.69 216.97 947.92 C 221.22 950.80 225.56 953.54 229.79 956.46 C 229.68 955.64 229.57 954.84 229.46 954.05 C 228.30 953.40 227.15 952.76 226.01 952.12 C 228.10 947.90 231.03 944.18 233.39 940.12 C 237.56 942.34 241.39 945.26 246.05 946.46 C 250.69 946.07 255.38 942.63 255.14 937.59 C 254.81 931.89 249.58 928.75 245.27 926.04 C 241.80 924.01 238.79 921.00 234.81 920.03 M 267.40 939.26 C 267.38 939.74 267.32 940.70 267.29 941.18 C 268.53 941.68 269.78 942.20 271.02 942.74 C 267.26 952.14 263.57 961.60 259.34 970.81 C 258.47 970.49 256.72 969.86 255.84 969.55 C 255.31 969.64 254.77 969.74 254.24 969.86 C 254.63 970.21 255.41 970.91 255.80 971.27 C 258.18 972.21 260.54 973.24 262.92 974.21 C 264.70 974.95 266.43 975.79 268.18 976.65 C 268.29 976.02 268.42 975.38 268.56 974.79 C 267.03 974.23 265.52 973.65 264.00 973.11 C 265.06 967.93 267.71 963.29 269.55 958.38 C 269.95 958.44 270.75 958.56 271.15 958.62 C 273.40 959.89 277.03 960.71 276.80 964.00 C 276.49 968.14 274.44 971.92 273.70 976.01 C 274.04 977.07 274.38 978.14 274.72 979.23 C 276.16 980.00 277.58 980.80 279.04 981.54 C 281.21 980.06 283.13 978.24 284.61 976.06 C 284.46 975.36 284.31 974.68 284.17 974.00 C 283.18 975.70 282.14 977.36 281.07 979.01 C 280.50 978.55 279.37 977.62 278.81 977.15 C 279.60 971.93 282.59 965.77 278.37 961.24 C 279.31 961.27 281.19 961.34 282.13 961.38 C 284.88 960.22 288.26 959.03 288.87 955.67 C 290.69 951.30 286.61 947.72 283.22 945.77 C 279.11 944.33 275.15 942.53 271.14 940.86 C 269.88 940.34 268.64 939.79 267.40 939.26 M 435.83 943.79 C 434.53 944.23 433.21 944.64 431.91 945.07 C 430.90 945.75 429.90 946.45 428.91 947.17 C 430.76 947.24 432.63 947.30 434.50 947.39 C 436.94 952.04 438.32 957.14 440.23 962.01 C 441.45 965.54 443.46 969.21 442.33 973.05 C 441.07 976.16 438.04 977.97 435.19 979.43 C 433.75 979.40 432.31 979.39 430.87 979.40 C 428.61 977.87 426.60 975.88 425.74 973.24 C 423.14 966.13 420.41 959.06 418.14 951.84 C 419.65 951.25 421.18 950.68 422.72 950.14 C 422.21 949.58 421.69 949.05 421.14 948.56 C 420.42 949.00 419.71 949.46 419.00 949.94 C 415.86 950.98 412.78 952.21 409.56 953.03 C 409.42 953.82 409.28 954.62 409.15 955.44 C 410.57 954.71 412.00 954.00 413.44 953.31 C 416.65 960.18 418.62 967.55 421.54 974.55 C 422.54 977.05 424.70 978.77 426.72 980.46 C 429.09 981.12 431.53 981.56 434.02 981.39 C 435.09 980.99 436.18 980.64 437.28 980.32 C 441.66 978.40 445.33 974.02 444.51 968.99 C 442.80 961.75 439.34 955.04 437.41 947.86 C 436.66 945.67 438.74 944.79 440.18 943.77 C 440.30 943.39 440.52 942.65 440.64 942.27 C 439.03 942.75 437.43 943.27 435.83 943.79 M 303.53 953.35 C 303.56 953.81 303.62 954.74 303.65 955.21 C 305.03 955.33 306.41 955.48 307.80 955.64 C 306.01 965.78 304.18 975.98 301.49 985.92 C 300.13 985.44 298.80 985.00 297.47 984.53 C 297.40 985.00 297.28 985.95 297.22 986.43 C 299.50 986.95 301.78 987.44 304.09 987.84 C 305.75 988.24 307.43 988.52 309.11 988.85 C 310.75 989.23 312.41 989.54 314.07 989.85 C 315.72 990.23 317.40 990.53 319.08 990.85 C 320.40 991.14 321.73 991.42 323.07 991.68 C 323.90 987.26 325.63 983.02 325.80 978.49 C 323.39 981.81 322.37 986.47 318.37 988.38 C 316.08 988.78 313.75 988.40 311.45 988.36 L 311.57 987.75 C 309.84 987.39 307.74 987.79 306.45 986.34 C 307.04 981.63 308.41 977.07 308.98 972.36 C 309.75 972.46 311.29 972.65 312.06 972.74 C 313.16 973.16 314.26 973.57 315.38 973.98 C 315.90 976.12 315.91 978.33 315.85 980.54 C 316.16 980.51 316.80 980.45 317.11 980.42 C 317.51 975.19 320.16 970.10 319.23 964.83 C 318.43 966.71 317.69 968.61 316.96 970.53 C 314.48 970.84 311.97 970.81 309.48 970.67 C 310.38 966.22 311.43 961.81 311.99 957.31 C 316.06 957.48 320.14 957.92 324.18 957.10 C 321.75 956.72 319.31 956.51 316.91 956.05 C 315.26 955.65 313.60 955.36 311.95 955.00 C 310.28 954.62 308.59 954.34 306.94 953.92 C 305.80 953.71 304.66 953.52 303.53 953.35 M 385.46 957.77 C 385.47 958.21 385.49 959.09 385.50 959.53 C 387.03 959.16 388.54 958.77 390.08 958.45 C 391.94 968.34 393.62 978.26 395.48 988.15 C 395.14 988.37 394.44 988.80 394.10 989.01 C 392.78 989.37 391.46 989.79 390.35 990.62 C 392.88 990.76 395.45 990.57 397.89 989.83 C 400.00 989.52 402.12 989.30 404.24 989.09 C 404.40 988.66 404.71 987.80 404.87 987.37 C 403.21 987.45 401.56 987.54 399.91 987.62 C 398.17 977.61 396.28 967.62 394.56 957.61 C 395.89 957.47 397.23 957.36 398.57 957.26 C 398.62 956.77 398.73 955.78 398.78 955.28 C 395.85 955.86 392.92 956.45 389.97 956.94 C 388.48 957.27 386.96 957.50 385.46 957.77 M 322.06 958.76 C 326.86 960.25 326.54 965.60 326.95 969.60 C 328.87 966.28 328.86 962.32 329.71 958.68 C 327.15 958.05 324.38 956.89 322.06 958.76 M 340.61 959.75 C 340.55 960.22 340.43 961.15 340.37 961.62 C 341.82 961.59 343.27 961.57 344.72 961.57 C 345.57 968.34 345.04 975.17 345.23 981.98 C 345.11 985.04 345.74 988.29 344.44 991.19 C 342.92 992.03 341.29 992.67 339.74 993.45 C 344.04 993.63 348.56 994.38 352.71 992.97 C 351.69 992.77 349.64 992.38 348.61 992.18 C 347.95 990.89 347.19 989.58 347.28 988.09 C 347.22 980.04 347.04 971.98 347.40 963.94 C 350.21 974.51 353.41 985.01 357.04 995.33 C 360.78 984.88 362.89 973.92 366.23 963.34 C 366.22 972.78 366.33 982.22 366.30 991.66 C 364.78 991.70 363.27 991.76 361.76 991.80 C 361.70 992.25 361.59 993.14 361.54 993.59 C 366.20 993.58 370.87 993.61 375.54 993.56 C 375.47 993.11 375.32 992.23 375.24 991.79 C 373.73 991.77 372.21 991.74 370.71 991.74 C 370.63 981.66 370.57 971.58 370.62 961.51 C 372.18 961.45 373.76 961.43 375.33 961.41 C 375.31 960.98 375.27 960.12 375.24 959.70 C 372.00 959.67 368.76 959.68 365.52 959.64 C 362.86 968.21 361.05 977.03 358.24 985.55 C 355.49 976.98 353.13 968.29 350.27 959.76 C 347.05 959.77 343.83 959.77 340.61 959.75 Z" />
<path fill="#02084b" opacity="1.00" d=" M 900.58 558.71 C 904.11 558.71 907.62 558.69 911.16 558.80 L 911.24 557.54 C 911.34 557.84 911.53 558.45 911.63 558.75 C 911.02 559.01 909.80 559.51 909.19 559.77 C 910.83 559.59 912.48 559.47 914.14 559.42 C 918.24 562.12 918.53 567.62 915.80 571.43 C 914.16 572.00 912.53 572.54 910.91 573.12 C 907.47 573.52 904.01 573.41 900.56 573.41 C 900.51 568.51 900.49 563.60 900.58 558.71 Z" />
<path fill="#02084b" opacity="1.00" d=" M 426.71 559.19 C 431.24 559.14 435.79 559.15 440.31 559.54 C 444.42 561.84 445.05 567.81 441.91 571.18 C 440.25 572.48 438.02 572.68 436.09 573.38 C 432.96 573.40 429.84 573.41 426.73 573.41 C 426.70 568.66 426.71 563.92 426.71 559.19 Z" />
<path fill="#02084b" opacity="1.00" d=" M 510.01 559.83 C 513.35 559.13 516.78 559.12 520.17 559.52 C 524.62 561.60 528.47 565.77 528.39 570.94 C 528.92 575.57 526.01 579.54 522.69 582.40 C 518.17 584.90 512.86 584.85 508.34 582.41 C 505.05 579.56 502.12 575.66 502.64 571.05 C 502.52 566.14 505.96 562.14 510.01 559.83 Z" />
<path fill="#02084b" opacity="1.00" d=" M 664.01 559.93 C 667.38 559.10 670.86 559.12 674.29 559.50 C 679.20 561.64 683.20 566.46 682.60 572.08 C 682.87 576.71 679.46 580.30 676.03 582.89 C 674.67 583.33 673.34 583.82 672.02 584.33 C 665.73 585.14 658.94 581.37 657.33 575.03 C 655.46 569.16 658.67 562.70 664.01 559.93 Z" />
<path fill="#02084b" opacity="1.00" d=" M 234.70 938.85 C 236.99 934.41 239.95 930.36 242.85 926.30 C 245.69 928.89 251.28 930.27 250.88 934.97 C 251.33 938.96 247.76 941.38 245.10 943.65 C 241.12 943.37 237.98 940.82 234.70 938.85 Z" />
<path fill="#02084b" opacity="1.00" d=" M 270.35 957.03 C 271.58 952.88 273.50 948.98 275.03 944.95 C 276.67 945.27 278.32 945.62 279.96 946.00 C 281.94 947.19 284.69 948.47 284.53 951.22 C 284.51 954.34 282.88 959.01 279.06 958.75 C 277.01 958.97 274.95 958.62 273.07 957.80 C 272.39 957.60 271.03 957.22 270.35 957.03 Z" />
</g>
<g id="#ffffffff">
<path fill="#ffffff" opacity="1.00" d=" M 761.40 184.20 C 764.05 184.43 766.75 184.43 769.33 183.67 C 775.31 191.30 780.38 199.60 785.89 207.58 C 786.27 207.67 787.03 207.85 787.41 207.94 C 787.27 202.62 786.75 197.33 786.72 192.02 C 786.73 189.77 786.36 187.55 785.48 185.48 C 784.37 185.43 783.27 185.39 782.18 185.35 L 782.14 183.54 C 786.05 183.44 789.94 183.24 793.86 183.44 C 792.19 184.64 789.97 185.11 788.74 186.83 C 788.33 197.41 789.90 207.97 789.54 218.56 C 788.18 217.91 786.83 217.21 786.10 215.84 C 780.04 206.90 773.86 198.04 767.79 189.11 C 768.02 195.07 768.49 201.02 768.52 206.99 C 768.71 209.78 768.23 212.81 769.65 215.37 C 771.16 216.14 772.81 216.61 774.41 217.20 C 770.53 218.52 766.41 218.40 762.37 218.47 C 762.36 218.06 762.32 217.24 762.30 216.82 C 764.01 216.36 766.79 216.75 766.54 214.16 C 766.86 204.86 765.89 195.56 765.70 186.26 C 764.23 186.23 762.77 186.20 761.33 186.18 C 761.34 185.52 761.36 184.86 761.40 184.20 Z" />
<path fill="#ffffff" opacity="1.00" d=" M 810.76 184.41 C 811.82 184.67 812.90 184.96 813.98 185.25 C 815.65 185.44 817.33 185.66 819.02 185.90 C 820.82 186.34 822.67 186.58 824.52 186.84 C 824.08 187.38 823.63 187.93 823.19 188.47 C 822.05 188.08 820.92 187.68 819.80 187.29 C 818.64 192.62 817.72 198.01 817.16 203.44 C 821.23 199.48 826.46 196.96 830.45 192.93 C 831.48 191.13 830.78 189.01 828.52 189.01 C 828.45 188.60 828.31 187.78 828.24 187.37 C 829.48 187.54 830.73 187.72 831.99 187.90 C 835.21 188.61 838.52 188.99 841.61 190.20 C 840.28 190.41 838.95 190.57 837.63 190.69 C 832.94 192.74 829.22 196.35 824.94 199.07 C 826.82 206.32 829.68 213.26 832.00 220.37 C 833.13 220.55 834.26 220.72 835.41 220.89 C 835.53 221.37 835.77 222.32 835.89 222.80 C 833.60 222.56 831.32 222.34 829.09 221.82 C 826.44 221.54 823.81 221.11 821.27 220.34 C 821.72 219.81 822.19 219.29 822.67 218.77 C 823.94 219.20 825.25 219.52 826.60 219.73 C 825.38 213.73 822.91 208.09 821.14 202.25 C 819.68 203.19 818.24 204.13 816.78 205.05 C 815.89 209.11 815.35 213.23 814.56 217.30 C 816.22 218.03 817.91 218.71 819.50 219.59 C 816.66 219.77 813.79 219.63 811.06 218.81 C 809.22 218.58 807.40 218.39 805.57 218.22 C 805.53 217.79 805.44 216.91 805.39 216.48 C 806.98 216.54 808.57 216.60 810.18 216.64 C 811.69 206.66 813.95 196.77 814.86 186.70 C 813.45 186.58 812.04 186.46 810.65 186.35 C 810.67 185.86 810.73 184.89 810.76 184.41 Z" />
<path fill="#ffffff" opacity="1.00" d=" M 730.54 189.77 C 735.01 188.94 739.42 187.82 743.93 187.17 C 743.80 187.66 743.54 188.65 743.41 189.15 C 742.16 189.31 740.91 189.48 739.68 189.65 C 741.66 199.41 743.67 209.16 745.76 218.90 C 747.33 218.80 748.91 218.71 750.50 218.61 C 750.51 219.02 750.54 219.84 750.55 220.24 C 747.98 220.75 745.45 221.38 742.88 221.80 C 741.16 222.31 739.43 222.78 737.74 223.33 C 737.34 222.84 736.94 222.34 736.56 221.86 C 738.08 221.37 739.60 220.86 741.15 220.37 C 739.66 210.29 737.29 200.36 735.17 190.40 C 734.37 190.62 732.77 191.06 731.96 191.27 C 731.62 191.31 730.92 191.39 730.57 191.43 C 730.56 191.02 730.55 190.19 730.54 189.77 Z" />
<path fill="#ffffff" opacity="1.00" d=" M 1084.96 313.84 C 1095.70 313.54 1106.45 313.73 1117.18 313.33 C 1121.33 312.54 1125.56 312.74 1129.77 312.68 C 1127.46 341.76 1124.84 370.85 1124.59 400.04 C 1124.20 425.53 1124.59 451.03 1126.64 476.44 C 1120.68 476.45 1114.74 476.44 1108.79 476.45 C 1106.16 452.16 1103.13 427.84 1097.67 404.00 C 1094.82 391.70 1091.31 379.31 1084.64 368.47 C 1078.15 357.54 1068.57 348.44 1057.22 342.69 C 1056.71 342.44 1055.68 341.94 1055.17 341.69 C 1054.07 341.18 1053.02 340.68 1051.95 340.19 C 1050.25 339.51 1048.55 338.85 1046.84 338.23 C 1039.13 335.42 1031.00 334.23 1022.97 332.78 C 1020.65 332.56 1018.33 332.38 1016.08 331.81 C 1011.11 331.22 1006.07 331.67 1001.15 330.72 C 982.97 330.47 964.79 330.64 946.61 330.59 C 946.61 383.30 946.60 436.01 946.61 488.72 C 922.46 488.77 898.32 488.74 874.17 488.74 C 874.17 459.16 874.18 429.58 874.17 400.00 C 874.18 388.33 874.17 376.67 874.17 365.00 C 874.18 353.54 874.17 342.09 874.18 330.63 C 854.73 330.60 835.28 330.47 815.83 330.72 C 811.89 331.57 807.85 331.44 803.86 331.75 C 797.89 332.81 791.85 333.49 785.92 334.83 C 784.59 335.21 783.22 335.51 781.90 335.83 C 780.30 336.32 778.69 336.78 777.12 337.31 C 776.57 337.42 775.46 337.64 774.90 337.74 C 773.58 338.26 772.26 338.75 770.96 339.27 C 769.31 339.89 767.69 340.55 766.06 341.18 C 747.96 349.66 734.42 366.16 728.30 385.05 C 718.68 414.64 715.71 445.79 711.68 476.48 C 705.84 476.41 699.99 476.44 694.16 476.46 C 694.78 464.30 695.88 452.16 695.82 439.98 C 696.94 417.01 695.97 394.02 695.25 371.05 C 694.69 363.02 694.41 354.98 693.71 346.96 C 693.29 335.44 691.49 324.00 691.22 312.47 C 692.16 312.66 694.04 313.05 694.98 313.24 C 711.96 313.93 728.99 313.09 745.94 314.29 C 779.99 314.66 814.03 314.65 848.07 314.80 C 851.01 315.36 854.04 315.49 856.99 314.86 C 860.62 315.55 864.34 315.24 868.02 315.29 C 889.70 315.26 911.38 315.38 933.06 315.19 C 938.66 314.47 944.37 314.57 950.00 315.07 C 961.29 314.30 972.65 314.91 983.98 314.69 C 1011.81 314.69 1039.64 314.47 1067.47 314.32 L 1067.58 313.73 C 1073.38 313.32 1079.21 314.40 1084.96 313.84 Z" />
<path fill="#ffffff" opacity="1.00" d=" M 60.83 313.22 C 72.91 313.17 84.93 314.55 97.01 314.50 C 105.37 314.68 113.72 314.64 122.08 314.79 C 129.34 315.79 136.72 315.07 144.03 315.29 C 149.30 315.19 154.62 315.66 159.85 314.72 C 167.25 314.54 174.67 314.69 182.06 314.24 C 187.98 313.39 193.97 313.39 199.93 313.24 C 221.92 371.80 244.43 430.16 266.44 488.71 C 241.27 488.78 216.11 488.75 190.95 488.72 C 176.40 451.10 161.76 413.51 147.18 375.90 C 145.52 371.49 143.56 367.17 142.40 362.59 C 141.58 370.71 141.90 378.87 141.85 387.01 C 141.85 420.92 141.84 454.83 141.85 488.74 C 135.97 488.75 130.08 488.75 124.20 488.74 C 124.20 457.16 124.22 425.58 124.19 393.99 C 123.53 379.65 123.95 364.78 118.74 351.15 C 116.12 343.83 110.21 337.95 103.01 335.11 C 100.72 334.30 98.40 333.55 96.11 332.75 C 93.10 332.08 90.08 331.51 87.09 330.78 C 84.74 330.54 82.39 330.34 80.09 329.79 C 76.45 329.50 72.77 329.49 69.19 328.72 C 66.40 328.59 63.62 328.52 60.84 328.44 C 60.82 323.36 60.83 318.29 60.83 313.22 Z" />
<path fill="#ffffff" opacity="1.00" d=" M 654.80 313.70 C 661.41 313.58 668.02 313.33 674.64 313.17 C 674.62 318.26 674.66 323.36 674.59 328.46 C 670.77 328.58 666.93 328.54 663.19 329.35 C 659.89 329.51 656.57 329.50 653.35 330.21 C 649.87 330.62 646.46 331.43 643.00 331.92 C 638.60 333.05 634.20 334.26 630.05 336.14 C 621.43 340.14 616.36 349.00 614.50 358.02 C 610.58 376.41 611.63 395.32 611.47 413.99 C 611.47 438.89 611.45 463.80 611.48 488.71 C 587.26 488.79 563.04 488.74 538.83 488.73 C 538.83 457.47 538.83 426.21 538.83 394.95 C 538.68 384.82 539.14 374.67 538.55 364.54 C 523.52 406.06 507.82 447.33 492.48 488.74 C 486.36 488.74 480.24 488.76 474.12 488.72 C 495.63 430.89 517.28 373.11 538.84 315.29 C 562.23 315.28 585.63 315.32 609.02 315.27 C 611.63 315.31 614.23 315.06 616.82 314.70 C 629.47 314.35 642.21 315.10 654.80 313.70 Z" />
<path fill="#ffffff" opacity="1.00" d=" M 274.18 553.41 C 282.73 553.41 291.29 553.40 299.84 553.41 C 299.84 555.17 299.84 556.94 299.85 558.72 C 293.37 558.71 286.89 558.73 280.41 558.70 C 280.31 561.99 280.32 565.29 280.33 568.59 C 286.18 568.59 292.03 568.58 297.88 568.60 C 297.83 570.51 297.77 572.43 297.70 574.35 C 291.90 574.30 286.11 574.34 280.32 574.33 C 280.32 577.64 280.31 580.96 280.44 584.28 C 285.96 584.00 291.57 584.80 297.04 583.78 C 298.23 584.02 299.44 584.26 300.64 584.51 C 300.62 586.19 300.61 587.88 300.61 589.57 C 291.80 589.61 282.99 589.58 274.18 589.59 C 274.17 581.73 274.18 573.86 274.17 566.00 C 274.17 561.80 274.17 557.60 274.18 553.41 Z" />
<path fill="#ffffff" opacity="1.00" d=" M 344.70 553.50 C 354.53 553.32 364.37 553.39 374.21 553.46 C 374.21 555.15 374.22 556.85 374.24 558.55 C 370.40 559.15 366.51 559.32 362.63 559.18 C 362.64 569.31 362.62 579.44 362.64 589.57 C 360.58 589.58 358.52 589.58 356.47 589.59 C 356.48 579.47 356.45 569.34 356.49 559.22 C 352.81 559.17 349.13 559.16 345.45 559.22 C 345.19 557.31 344.94 555.40 344.70 553.50 Z" />
<path fill="#ffffff" opacity="1.00" d=" M 507.72 554.59 C 514.52 552.46 522.65 552.82 528.17 557.81 C 535.55 563.36 536.85 574.95 531.26 582.20 C 529.06 585.54 525.39 587.34 521.99 589.20 C 517.70 589.87 513.32 589.87 509.02 589.21 C 505.18 587.23 501.21 584.97 499.02 581.07 C 494.81 574.45 495.61 564.85 501.24 559.28 C 503.11 557.35 505.44 555.97 507.72 554.59 M 510.01 559.83 C 505.96 562.14 502.52 566.14 502.64 571.05 C 502.12 575.66 505.05 579.56 508.34 582.41 C 512.86 584.85 518.17 584.90 522.69 582.40 C 526.01 579.54 528.92 575.57 528.39 570.94 C 528.47 565.77 524.62 561.60 520.17 559.52 C 516.78 559.12 513.35 559.13 510.01 559.83 Z" />
<path fill="#ffffff" opacity="1.00" d=" M 577.70 553.49 C 587.53 553.34 597.38 553.38 607.22 553.46 C 607.21 554.83 607.21 556.21 607.23 557.60 C 606.97 558.00 606.47 558.80 606.22 559.20 C 602.69 559.17 599.16 559.18 595.63 559.18 C 595.64 569.31 595.62 579.44 595.64 589.57 C 593.58 589.58 591.52 589.58 589.47 589.59 C 589.48 579.47 589.45 569.34 589.49 559.22 C 585.80 559.17 582.12 559.16 578.44 559.22 C 578.18 557.31 577.93 555.39 577.70 553.49 Z" />
<path fill="#ffffff" opacity="1.00" d=" M 661.80 554.65 C 666.32 553.04 671.23 553.21 675.91 553.96 C 682.90 556.67 689.19 563.02 688.82 570.98 C 689.56 578.08 684.96 584.61 678.91 587.90 C 673.98 590.39 668.26 589.89 662.98 589.12 C 659.33 587.24 655.77 584.92 653.50 581.43 C 648.93 574.67 649.79 564.52 655.86 558.94 C 657.59 557.19 659.71 555.93 661.80 554.65 M 664.01 559.93 C 658.67 562.70 655.46 569.16 657.33 575.03 C 658.94 581.37 665.73 585.14 672.02 584.33 C 673.34 583.82 674.67 583.33 676.03 582.89 C 679.46 580.30 682.87 576.71 682.60 572.08 C 683.20 566.46 679.20 561.64 674.29 559.50 C 670.86 559.12 667.38 559.10 664.01 559.93 Z" />
<path fill="#ffffff" opacity="1.00" d=" M 819.18 553.40 C 827.73 553.41 836.28 553.40 844.84 553.41 C 844.83 555.17 844.83 556.94 844.85 558.72 C 838.37 558.71 831.89 558.74 825.42 558.70 C 825.31 561.99 825.32 565.29 825.33 568.59 C 831.18 568.59 837.03 568.58 842.88 568.60 C 842.82 570.51 842.77 572.43 842.69 574.35 C 836.90 574.30 831.11 574.34 825.32 574.33 C 825.32 577.65 825.30 580.97 825.44 584.30 C 827.26 584.23 829.10 584.26 830.94 584.22 C 835.83 584.29 840.72 584.24 845.62 584.28 C 845.60 586.04 845.60 587.80 845.61 589.57 C 836.81 589.61 828.00 589.57 819.20 589.60 C 819.17 587.73 819.16 585.86 819.16 584.00 C 819.15 581.99 819.16 579.99 819.17 578.00 C 819.18 569.80 819.17 561.60 819.18 553.40 Z" />
<path fill="#ffffff" opacity="1.00" d=" M 976.17 555.28 C 980.59 552.46 986.13 553.32 991.08 553.69 C 993.31 554.65 995.55 555.61 997.71 556.77 C 996.82 558.70 995.96 560.63 995.13 562.59 C 991.31 559.80 986.59 558.66 981.91 559.37 C 979.59 559.25 977.85 562.22 979.09 564.20 C 979.70 565.76 981.36 566.43 982.63 567.38 C 984.74 567.92 986.82 568.59 988.91 569.26 C 992.64 570.71 997.23 572.53 997.87 577.07 C 999.36 581.76 996.04 586.09 992.21 588.41 C 987.96 590.08 983.33 589.80 978.89 589.42 C 977.63 588.86 976.37 588.30 975.12 587.79 C 973.32 586.69 971.11 585.87 970.03 583.97 C 970.51 582.03 971.63 580.35 972.60 578.63 C 974.06 580.24 975.93 581.40 977.82 582.48 C 980.20 583.13 982.59 583.71 985.00 584.26 C 987.70 583.75 990.21 582.56 991.69 580.14 C 990.92 577.76 989.25 575.97 987.17 574.67 C 986.07 574.55 984.98 574.42 983.91 574.30 C 982.61 573.80 981.34 573.31 980.06 572.85 C 977.32 571.75 974.51 570.41 972.89 567.83 C 970.62 563.64 971.96 557.71 976.17 555.28 Z" />
<path fill="#ffffff" opacity="1.00" d=" M 184.93 553.48 C 187.42 553.41 189.91 553.40 192.41 553.39 C 196.43 561.27 200.13 569.33 204.38 577.11 C 208.25 569.21 212.25 561.38 216.02 553.44 C 218.50 553.40 220.97 553.40 223.45 553.43 C 223.44 565.47 223.44 577.51 223.45 589.55 C 221.52 589.57 219.59 589.58 217.67 589.60 C 217.62 580.67 217.70 571.74 217.56 562.81 C 213.92 570.49 210.02 578.05 206.38 585.73 C 204.93 585.70 203.49 585.68 202.05 585.65 C 198.63 577.91 194.29 570.60 191.21 562.71 C 190.43 571.65 190.97 580.63 190.81 589.59 C 188.93 589.58 187.05 589.58 185.17 589.59 C 185.02 577.55 185.49 565.50 184.93 553.48 Z" />
<path fill="#ffffff" opacity="1.00" d=" M 420.57 553.41 C 428.14 553.73 435.91 552.52 443.31 554.59 C 445.37 556.20 447.72 557.74 448.79 560.24 C 450.27 563.30 449.66 566.82 449.49 570.09 C 448.23 572.81 446.33 575.16 443.89 576.91 C 443.52 577.14 442.79 577.62 442.42 577.85 C 445.23 581.63 447.85 585.56 450.34 589.56 C 447.97 589.58 445.60 589.58 443.24 589.47 C 441.33 585.76 439.03 582.27 436.99 578.63 C 433.56 578.57 430.13 578.58 426.71 578.59 C 426.71 582.25 426.71 585.92 426.71 589.58 C 424.66 589.58 422.61 589.58 420.56 589.59 C 420.57 577.53 420.56 565.47 420.57 553.41 M 426.71 559.19 C 426.71 563.92 426.70 568.66 426.73 573.41 C 429.84 573.41 432.96 573.40 436.09 573.38 C 438.02 572.68 440.25 572.48 441.91 571.18 C 445.05 567.81 444.42 561.84 440.31 559.54 C 435.79 559.15 431.24 559.14 426.71 559.19 Z" />
<path fill="#ffffff" opacity="1.00" d=" M 736.82 553.39 C 738.88 553.40 740.95 553.41 743.03 553.46 C 749.37 562.13 755.84 570.70 762.28 579.30 C 762.26 570.65 762.24 562.01 762.30 553.36 C 764.31 553.39 766.34 553.42 768.37 553.47 C 768.35 565.50 768.36 577.53 768.36 589.56 C 766.26 589.57 764.16 589.58 762.07 589.56 C 756.02 580.80 749.01 572.70 743.40 563.65 C 742.33 572.25 743.05 580.95 742.84 589.59 C 740.83 589.58 738.82 589.58 736.82 589.59 C 736.82 577.52 736.82 565.45 736.82 553.39 Z" />
<path fill="#ffffff" opacity="1.00" d=" M 894.36 553.41 C 900.93 553.47 907.51 553.20 914.07 553.70 C 915.11 554.06 916.17 554.41 917.25 554.75 C 926.00 559.02 925.68 573.33 916.79 577.19 C 916.72 577.46 916.59 578.01 916.52 578.28 C 919.17 581.96 921.68 585.74 924.18 589.54 C 921.81 589.58 919.46 589.58 917.11 589.53 C 915.06 585.81 912.80 582.22 910.64 578.58 C 907.26 578.59 903.89 578.59 900.53 578.59 C 900.52 582.24 900.52 585.90 900.53 589.56 C 898.47 589.57 896.41 589.58 894.37 589.60 C 894.36 577.53 894.36 565.47 894.36 553.41 M 900.58 558.71 C 900.49 563.60 900.51 568.51 900.56 573.41 C 904.01 573.41 907.47 573.52 910.91 573.12 C 912.53 572.54 914.16 572.00 915.80 571.43 C 918.53 567.62 918.24 562.12 914.14 559.42 C 912.48 559.47 910.83 559.59 909.19 559.77 C 909.80 559.51 911.02 559.01 911.63 558.75 C 911.53 558.45 911.34 557.84 911.24 557.54 L 911.16 558.80 C 907.62 558.69 904.11 558.71 900.58 558.71 Z" />
<path fill="#ffffff" opacity="1.00" d=" M 411.56 656.34 C 417.71 656.38 423.86 656.29 430.01 656.40 C 403.79 727.14 377.29 797.78 351.11 868.53 C 346.90 868.62 342.69 868.57 338.48 868.60 C 310.97 797.88 283.53 727.13 256.09 656.38 C 280.80 656.34 305.50 656.31 330.21 656.39 C 343.80 692.43 357.65 728.37 371.16 764.44 C 384.67 728.42 398.00 692.34 411.56 656.34 Z" />
<path fill="#ffffff" opacity="1.00" d=" M 124.18 656.37 C 130.07 656.33 135.96 656.35 141.85 656.35 C 141.84 686.23 141.85 716.12 141.85 746.00 C 141.89 764.62 141.53 783.30 143.42 801.84 C 144.57 812.73 146.97 824.25 154.76 832.47 C 158.81 836.58 163.87 839.52 169.01 842.04 C 171.29 842.74 173.54 843.50 175.79 844.28 C 178.53 844.86 181.25 845.53 183.94 846.31 C 185.35 846.47 186.78 846.64 188.20 846.83 C 190.82 847.42 193.52 847.57 196.20 847.76 C 201.60 848.93 207.17 848.66 212.66 848.76 C 213.00 854.06 212.80 859.38 212.84 864.69 C 207.93 864.43 202.97 864.70 198.12 863.74 C 190.05 863.64 181.99 863.37 173.92 863.21 C 169.99 862.48 165.99 862.78 162.02 862.72 C 142.67 862.62 123.31 862.50 103.96 862.80 C 93.68 863.92 83.26 862.86 72.98 864.09 C 68.94 864.45 64.87 864.45 60.82 864.65 C 60.83 859.60 60.84 854.55 60.82 849.50 C 62.47 849.24 64.12 848.97 65.76 848.70 C 68.85 848.61 71.93 848.47 75.00 848.19 C 78.96 847.36 83.01 847.01 86.93 845.95 C 89.28 845.26 91.65 844.60 93.99 843.88 C 94.52 843.75 95.59 843.48 96.12 843.35 C 102.93 840.74 109.52 836.82 113.70 830.68 C 120.73 820.88 121.98 808.47 123.28 796.83 C 124.16 781.90 124.30 766.95 124.20 752.00 C 124.19 720.12 124.23 688.25 124.18 656.37 Z" />
<path fill="#ffffff" opacity="1.00" d=" M 538.83 656.37 C 563.04 656.35 587.26 656.31 611.48 656.38 C 611.46 697.94 611.47 739.50 611.47 781.06 C 611.52 795.16 611.78 809.50 615.49 823.20 C 617.97 832.36 624.83 840.17 633.85 843.32 C 635.93 843.81 638.00 844.38 640.10 844.90 C 644.23 846.12 648.53 846.51 652.77 847.31 C 655.15 847.49 657.55 847.72 659.89 848.29 C 664.75 848.70 669.62 848.73 674.50 848.78 C 674.74 854.07 674.59 859.38 674.64 864.68 C 668.09 864.54 661.53 864.52 655.03 863.72 C 644.67 863.62 634.30 863.34 623.94 863.20 C 615.65 862.22 607.26 862.92 598.94 862.67 C 576.59 862.56 554.25 862.58 531.91 862.79 C 529.98 863.14 528.01 863.27 526.05 863.26 C 514.99 863.20 503.94 863.66 492.89 863.73 C 487.21 864.75 481.42 864.40 475.69 864.70 C 475.71 859.39 475.64 854.09 475.75 848.79 C 480.55 848.73 485.35 848.68 490.13 848.32 C 493.05 847.62 496.08 847.55 499.01 846.93 C 500.72 846.67 502.46 846.49 504.19 846.32 C 506.12 845.81 508.07 845.40 510.00 844.91 C 511.30 844.59 512.60 844.27 513.91 843.96 C 516.62 843.08 519.24 841.96 521.84 840.79 C 529.21 836.22 533.81 828.37 535.56 820.01 C 538.44 807.91 538.81 795.40 538.83 783.02 C 538.83 740.80 538.82 698.58 538.83 656.37 Z" />
<path fill="#ffffff" opacity="1.00" d=" M 874.17 656.35 C 898.32 656.36 922.46 656.32 946.61 656.37 C 946.60 695.23 946.60 734.09 946.61 772.96 C 946.70 787.66 947.15 802.58 951.09 816.84 C 953.76 825.34 958.86 833.50 966.62 838.19 C 969.64 840.04 972.89 841.49 976.14 842.90 C 977.45 843.23 978.77 843.54 980.11 843.87 C 981.41 844.24 982.73 844.61 984.06 844.98 C 986.35 845.40 988.66 845.71 990.95 846.24 C 993.25 846.49 995.56 846.78 997.84 847.31 C 1002.20 847.67 1006.63 847.46 1010.95 848.40 C 1015.74 848.71 1020.54 848.74 1025.35 848.80 C 1025.53 854.08 1025.40 859.37 1025.46 864.66 C 1014.27 864.90 1003.19 863.26 992.00 863.60 C 982.69 863.21 973.32 863.70 964.05 862.82 C 929.69 862.57 895.32 862.49 860.95 862.82 C 850.67 863.84 840.28 863.11 829.95 863.51 C 821.37 863.77 812.70 863.03 804.20 864.36 C 801.29 864.48 798.38 864.60 795.49 864.70 C 795.48 859.59 795.50 854.48 795.48 849.37 C 797.92 849.29 800.37 849.07 802.81 848.73 C 806.79 848.60 810.81 848.62 814.73 847.75 C 817.78 847.57 820.86 847.50 823.87 846.85 C 826.17 846.60 828.49 846.39 830.76 845.87 C 836.29 845.16 841.72 843.76 847.00 841.99 C 849.63 840.60 852.30 839.30 854.88 837.83 C 862.77 832.36 867.96 823.68 870.25 814.46 C 873.00 803.19 873.85 791.54 873.85 779.96 C 874.48 768.66 874.04 757.33 874.17 746.02 C 874.17 716.13 874.17 686.24 874.17 656.35 Z" />
<path fill="#ffffff" opacity="1.00" d=" M 475.98 920.90 C 476.72 920.29 477.48 919.73 478.23 919.15 C 478.29 919.63 478.42 920.57 478.48 921.04 C 477.17 922.03 474.24 922.81 475.94 924.90 C 480.84 932.97 486.01 940.89 490.97 948.93 C 491.69 948.65 493.12 948.09 493.83 947.81 C 494.48 947.36 495.12 946.92 495.77 946.49 C 495.62 947.26 495.48 948.03 495.34 948.82 C 491.63 950.84 488.06 953.11 484.73 955.72 C 484.30 955.12 483.87 954.54 483.45 953.97 C 484.72 953.31 485.97 952.62 487.25 952.00 C 483.09 943.73 477.45 936.30 472.88 928.26 C 474.59 938.74 479.60 948.44 480.95 958.97 C 473.39 952.91 466.24 946.35 458.83 940.10 C 458.23 939.40 457.63 938.72 457.02 938.05 C 458.07 941.59 460.37 944.54 462.29 947.64 C 465.10 952.01 467.74 956.50 470.77 960.73 C 471.63 960.66 473.34 960.51 474.19 960.44 C 474.46 960.07 474.99 959.31 475.26 958.93 C 475.41 959.48 475.70 960.58 475.85 961.13 C 472.52 963.08 469.37 965.31 465.97 967.13 C 466.55 964.78 469.63 962.57 467.75 960.17 C 463.04 952.49 458.35 944.74 453.23 937.33 C 451.78 937.61 450.78 938.76 449.64 939.60 C 449.21 939.06 448.80 938.54 448.39 938.03 C 450.99 936.56 453.54 934.99 456.02 933.32 C 456.51 933.35 457.48 933.41 457.96 933.44 C 464.17 939.19 470.55 944.75 476.98 950.24 C 475.39 941.88 471.92 934.00 470.09 925.70 C 469.78 924.48 471.33 923.90 471.96 923.12 C 473.32 922.41 474.64 921.64 475.98 920.90 Z" />
<path fill="#ffffff" opacity="1.00" d=" M 234.81 920.03 C 238.79 921.00 241.80 924.01 245.27 926.04 C 249.58 928.75 254.81 931.89 255.14 937.59 C 255.38 942.63 250.69 946.07 246.05 946.46 C 241.39 945.26 237.56 942.34 233.39 940.12 C 231.03 944.18 228.10 947.90 226.01 952.12 C 227.15 952.76 228.30 953.40 229.46 954.05 C 229.57 954.84 229.68 955.64 229.79 956.46 C 225.56 953.54 221.22 950.80 216.97 947.92 C 217.54 947.69 218.11 947.49 218.69 947.30 C 219.78 947.94 220.92 948.50 222.11 948.98 C 227.46 941.55 232.26 933.72 237.35 926.10 C 239.19 923.64 235.97 921.87 234.81 920.03 M 234.70 938.85 C 237.98 940.82 241.12 943.37 245.10 943.65 C 247.76 941.38 251.33 938.96 250.88 934.97 C 251.28 930.27 245.69 928.89 242.85 926.30 C 239.95 930.36 236.99 934.41 234.70 938.85 Z" />
<path fill="#ffffff" opacity="1.00" d=" M 267.40 939.26 C 268.64 939.79 269.88 940.34 271.14 940.86 C 275.15 942.53 279.11 944.33 283.22 945.77 C 286.61 947.72 290.69 951.30 288.87 955.67 C 288.26 959.03 284.88 960.22 282.13 961.38 C 281.19 961.34 279.31 961.27 278.37 961.24 C 282.59 965.77 279.60 971.93 278.81 977.15 C 279.37 977.62 280.50 978.55 281.07 979.01 C 282.14 977.36 283.18 975.70 284.17 974.00 C 284.31 974.68 284.46 975.36 284.61 976.06 C 283.13 978.24 281.21 980.06 279.04 981.54 C 277.58 980.80 276.16 980.00 274.72 979.23 C 274.38 978.14 274.04 977.07 273.70 976.01 C 274.44 971.92 276.49 968.14 276.80 964.00 C 277.03 960.71 273.40 959.89 271.15 958.62 C 270.75 958.56 269.95 958.44 269.55 958.38 C 267.71 963.29 265.06 967.93 264.00 973.11 C 265.52 973.65 267.03 974.23 268.56 974.79 C 268.42 975.38 268.29 976.02 268.18 976.65 C 266.43 975.79 264.70 974.95 262.92 974.21 C 260.54 973.24 258.18 972.21 255.80 971.27 C 255.41 970.91 254.63 970.21 254.24 969.86 C 254.77 969.74 255.31 969.64 255.84 969.55 C 256.72 969.86 258.47 970.49 259.34 970.81 C 263.57 961.60 267.26 952.14 271.02 942.74 C 269.78 942.20 268.53 941.68 267.29 941.18 C 267.32 940.70 267.38 939.74 267.40 939.26 M 270.35 957.03 C 271.03 957.22 272.39 957.60 273.07 957.80 C 274.95 958.62 277.01 958.97 279.06 958.75 C 282.88 959.01 284.51 954.34 284.53 951.22 C 284.69 948.47 281.94 947.19 279.96 946.00 C 278.32 945.62 276.67 945.27 275.03 944.95 C 273.50 948.98 271.58 952.88 270.35 957.03 Z" />
<path fill="#ffffff" opacity="1.00" d=" M 435.83 943.79 C 437.43 943.27 439.03 942.75 440.64 942.27 C 440.52 942.65 440.30 943.39 440.18 943.77 C 438.74 944.79 436.66 945.67 437.41 947.86 C 439.34 955.04 442.80 961.75 444.51 968.99 C 445.33 974.02 441.66 978.40 437.28 980.32 C 436.18 980.64 435.09 980.99 434.02 981.39 C 431.53 981.56 429.09 981.12 426.72 980.46 C 424.70 978.77 422.54 977.05 421.54 974.55 C 418.62 967.55 416.65 960.18 413.44 953.31 C 412.00 954.00 410.57 954.71 409.15 955.44 C 409.28 954.62 409.42 953.82 409.56 953.03 C 412.78 952.21 415.86 950.98 419.00 949.94 C 419.71 949.46 420.42 949.00 421.14 948.56 C 421.69 949.05 422.21 949.58 422.72 950.14 C 421.18 950.68 419.65 951.25 418.14 951.84 C 420.41 959.06 423.14 966.13 425.74 973.24 C 426.60 975.88 428.61 977.87 430.87 979.40 C 432.31 979.39 433.75 979.40 435.19 979.43 C 438.04 977.97 441.07 976.16 442.33 973.05 C 443.46 969.21 441.45 965.54 440.23 962.01 C 438.32 957.14 436.94 952.04 434.50 947.39 C 432.63 947.30 430.76 947.24 428.91 947.17 C 429.90 946.45 430.90 945.75 431.91 945.07 C 433.21 944.64 434.53 944.23 435.83 943.79 Z" />
<path fill="#ffffff" opacity="1.00" d=" M 303.53 953.35 C 304.66 953.52 305.80 953.71 306.94 953.92 C 308.59 954.34 310.28 954.62 311.95 955.00 C 313.60 955.36 315.26 955.65 316.91 956.05 C 319.31 956.51 321.75 956.72 324.18 957.10 C 320.14 957.92 316.06 957.48 311.99 957.31 C 311.43 961.81 310.38 966.22 309.48 970.67 C 311.97 970.81 314.48 970.84 316.96 970.53 C 317.69 968.61 318.43 966.71 319.23 964.83 C 320.16 970.10 317.51 975.19 317.11 980.42 C 316.80 980.45 316.16 980.51 315.85 980.54 C 315.91 978.33 315.90 976.12 315.38 973.98 C 314.26 973.57 313.16 973.16 312.06 972.74 C 311.29 972.65 309.75 972.46 308.98 972.36 C 308.41 977.07 307.04 981.63 306.45 986.34 C 307.74 987.79 309.84 987.39 311.57 987.75 L 311.45 988.36 C 313.75 988.40 316.08 988.78 318.37 988.38 C 322.37 986.47 323.39 981.81 325.80 978.49 C 325.63 983.02 323.90 987.26 323.07 991.68 C 321.73 991.42 320.40 991.14 319.08 990.85 C 317.40 990.53 315.72 990.23 314.07 989.85 C 312.41 989.54 310.75 989.23 309.11 988.85 C 307.43 988.52 305.75 988.24 304.09 987.84 C 301.78 987.44 299.50 986.95 297.22 986.43 C 297.28 985.95 297.40 985.00 297.47 984.53 C 298.80 985.00 300.13 985.44 301.49 985.92 C 304.18 975.98 306.01 965.78 307.80 955.64 C 306.41 955.48 305.03 955.33 303.65 955.21 C 303.62 954.74 303.56 953.81 303.53 953.35 Z" />
<path fill="#ffffff" opacity="1.00" d=" M 385.46 957.77 C 386.96 957.50 388.48 957.27 389.97 956.94 C 392.92 956.45 395.85 955.86 398.78 955.28 C 398.73 955.78 398.62 956.77 398.57 957.26 C 397.23 957.36 395.89 957.47 394.56 957.61 C 396.28 967.62 398.17 977.61 399.91 987.62 C 401.56 987.54 403.21 987.45 404.87 987.37 C 404.71 987.80 404.40 988.66 404.24 989.09 C 402.12 989.30 400.00 989.52 397.89 989.83 C 395.45 990.57 392.88 990.76 390.35 990.62 C 391.46 989.79 392.78 989.37 394.10 989.01 C 394.44 988.80 395.14 988.37 395.48 988.15 C 393.62 978.26 391.94 968.34 390.08 958.45 C 388.54 958.77 387.03 959.16 385.50 959.53 C 385.49 959.09 385.47 958.21 385.46 957.77 Z" />
<path fill="#ffffff" opacity="1.00" d=" M 322.06 958.76 C 324.38 956.89 327.15 958.05 329.71 958.68 C 328.86 962.32 328.87 966.28 326.95 969.60 C 326.54 965.60 326.86 960.25 322.06 958.76 Z" />
<path fill="#ffffff" opacity="1.00" d=" M 340.61 959.75 C 343.83 959.77 347.05 959.77 350.27 959.76 C 353.13 968.29 355.49 976.98 358.24 985.55 C 361.05 977.03 362.86 968.21 365.52 959.64 C 368.76 959.68 372.00 959.67 375.24 959.70 C 375.27 960.12 375.31 960.98 375.33 961.41 C 373.76 961.43 372.18 961.45 370.62 961.51 C 370.57 971.58 370.63 981.66 370.71 991.74 C 372.21 991.74 373.73 991.77 375.24 991.79 C 375.32 992.23 375.47 993.11 375.54 993.56 C 370.87 993.61 366.20 993.58 361.54 993.59 C 361.59 993.14 361.70 992.25 361.76 991.80 C 363.27 991.76 364.78 991.70 366.30 991.66 C 366.33 982.22 366.22 972.78 366.23 963.34 C 362.89 973.92 360.78 984.88 357.04 995.33 C 353.41 985.01 350.21 974.51 347.40 963.94 C 347.04 971.98 347.22 980.04 347.28 988.09 C 347.19 989.58 347.95 990.89 348.61 992.18 C 349.64 992.38 351.69 992.77 352.71 992.97 C 348.56 994.38 344.04 993.63 339.74 993.45 C 341.29 992.67 342.92 992.03 344.44 991.19 C 345.74 988.29 345.11 985.04 345.23 981.98 C 345.04 975.17 345.57 968.34 344.72 961.57 C 343.27 961.57 341.82 961.59 340.37 961.62 C 340.43 961.15 340.55 960.22 340.61 959.75 Z" />
</g>
</svg>
